<svg xmlns="http://www.w3.org/2000/svg" width="1920" height="1080"><path fill="#AF530C" d="M1426 320c6 5 6 5 6 9 0 8-1 15-3 22l-2 7-1 3-3 13a1684 1684 0 0 0 118-3h2l13-1h3l5-1 3-7c3-4 7-5 12-5 6 0 11 3 16 7 3 4 4 7 4 12 0 4-1 6-4 9-8 5-17 4-26 5h-27a2122 2122 0 0 0-127 7l-7 18-1 3a995 995 0 0 0-15 45c-36 102-36 102-33 205 2 2 2 2 5 2 6 0 10-4 15-8l2-2c34-27 56-80 76-118l1-3 2-3 4-6h2l1-2c4-10 11-18 18-26l2-2c6-7 13-12 22-13 4-1 8 0 12 2 3 0 4-1 7-3h10c3 2 5 4 6 7 1 7-2 12-4 18-6 14-11 28-9 44 1 3 2 5 5 6 8 3 17-1 24-5l25-16 3-1 5-4c4-3 7-5 13-5l7 6c1 7 1 7-2 11l-11 8-2 2c-21 13-41 25-66 22l-9-4-2-1c-6-4-9-11-12-17l-2 2a254 254 0 0 1-16 20c-7 6-13 8-21 8-6 0-10-3-14-6l-1 3-4 8-2 4-2 3-1 2c-47 80-47 80-79 91-8 1-15 0-22-4-11-10-15-24-16-38v-18c0-24 4-47 8-70l-3 2c-17 10-36 19-57 14l-6-3-2-1c-6-4-9-11-12-17l-2 2a254 254 0 0 1-16 20c-6 6-13 8-21 8-6 0-10-3-14-7l-4-10-1 1c-9 7-16 9-27 8-7-2-13-6-18-11l-2-2c-7-7-11-17-15-27l-1-2-2-5c-2-5-2-5-6-8-5 6-8 12-12 19l-2 3a277 277 0 0 0-14 33c-8 19-8 19-16 23-6 1-10 2-15 0-5-3-7-6-9-12-2-9-1-18 1-27l-2 1c-18 10-36 19-57 14l-6-3-2-1c-6-4-9-11-12-17l-2 2-14 18-2 2c-6 6-13 8-21 8-6 0-10-3-14-7-4-6-4-14-3-22 5-24 24-53 44-67 6-4 12-5 19-4l5 2c3 0 4-1 7-3h10c3 2 5 4 6 7 1 7-2 12-4 18-6 14-11 28-9 44 1 3 2 5 5 6 8 3 17-1 24-5a221 221 0 0 0 24-14c12-6 15-20 19-32 4-14 10-27 21-37 3-1 5-2 9-1 5 2 7 5 9 10 3 7-1 16-4 24l-1 3-2 7 2-2c6-6 11-10 20-11 7 0 13 2 18 7 8 9 12 21 17 32 4 11 4 11 13 19 10-1 16-10 22-18l5-6 2-3 5-3 3-3 1-3 17-23 2-2c6-7 13-12 22-13 4-1 8 0 12 2 3 0 4-1 7-3h10c3 2 5 4 6 7 1 7-2 12-4 18-6 14-11 28-9 44 1 3 2 5 5 6 8 3 17-1 24-5l15-9 9-5c7-3 11-6 13-12a717 717 0 0 1 25-103l1-2 10-30a1064 1064 0 0 0-130 8l-1 3c-1 3-2 4-5 6h-11c-4-3-6-5-8-9 0-5 0-9 3-13 10-10 26-9 39-10a63762 63762 0 0 0 95-4h14c5 0 5 0 10-3l6-13c12-35 12-35 24-40h9ZM979 517c-10 12-10 12-18 26l1 2 14-20 1-1 3-5-1-2Zm275 0c-10 12-10 12-18 26l1 2 14-20 1-1 3-5-1-2Zm252 0c-10 12-10 12-18 26l1 2 14-20 1-1 3-5-1-2Zm-546 28 1 2Zm275 0 1 2Zm252 0 1 2ZM643 295c6 4 9 9 11 16v27c0 103-13 206-32 307l-1 4a3405 3405 0 0 1-5 29c-11 56-11 56-24 67-4 3-9 3-14 2-4-2-6-4-7-8-2-10 2-19 4-29l4-14 1-3a1473 1473 0 0 0 49-368l-5-1-5 5-2 2-12 19-7 10c-12 19-24 39-34 59l-8 14a5406 5406 0 0 0-40 74c-21 42-21 42-37 50-7 1-13 0-19-4-13-11-13-33-15-48a1336 1336 0 0 0-1-16 565 565 0 0 1-3-78 12501 12501 0 0 0 0-33v-2l-1-7a463 463 0 0 0-18 35 1361 1361 0 0 0-84 231c-5 16-6 31-6 47 0 9 0 9-3 13-4 4-7 6-13 6-3 0-6 0-8-2-5-5-5-10-5-17l3-16 1-3a1369 1369 0 0 1 5-16 2181 2181 0 0 1 43-133c49-139 49-139 72-167l1-2c4-4 8-7 13-9 5 0 9-1 14 1 9 8 11 19 13 31l1 3 3 30v38a1282 1282 0 0 0 4 80v8c3-2 5-5 6-8l2-2 1-3 4-5 1-3 6-9a2146 2146 0 0 0 72-127c50-84 50-84 75-75Z"/><path fill="#AF520C" d="M862 473c4 3 7 6 7 11 1 9-2 17-5 26a1813 1813 0 0 0-5 15l1-2c23-28 23-28 39-31 9-1 16 1 24 7 3 3 6 6 6 11s-1 7-3 10c-4 3-6 4-11 4-4-1-6-4-10-6-3-2-4-2-8-2-25 10-37 47-47 70-10 21-10 21-19 25-5 1-9 1-13-2-6-4-8-10-8-17l2-30-3 2c-17 10-36 19-57 14l-6-3-2-1c-6-4-9-11-12-17l-2 2-14 18-2 2c-6 6-13 8-21 8-6 0-10-3-14-7-4-6-4-14-3-22 5-24 24-53 44-67 6-4 12-5 19-4l5 2c3 0 4-1 7-3h10c3 2 5 4 6 7 1 7-2 12-4 18-6 14-11 28-9 44 1 3 2 5 5 6 8 3 17-1 24-5 10-5 20-12 30-19l6-3v-3c3-19 13-42 28-55 5-4 9-4 15-3Zm-133 44c-10 12-10 12-18 26l1 2 14-20 1-1 3-5-1-2Zm-19 28 1 2Z"/><path fill="#FBF7F6" d="M1426 320c6 5 6 5 6 9 0 8-1 15-3 22l-2 7-1 3-3 13a1684 1684 0 0 0 118-3h2l13-1h3l5-1 3-7c3-4 7-5 12-5 6 0 11 3 16 7 3 4 4 7 4 12 0 4-1 6-4 9-8 5-17 4-26 5h-27a2122 2122 0 0 0-127 7l-7 18-1 3a995 995 0 0 0-15 45c-36 102-36 102-33 205 2 2 2 2 5 2 6 0 10-4 15-8l2-2c34-27 56-80 76-118l1-3 2-3 4-6h2l1-2c4-10 11-18 18-26l2-2c6-7 13-12 22-13 4-1 8 0 12 2 3 0 4-1 7-3h10c3 2 5 4 6 7 1 7-2 12-4 18-6 14-11 28-9 44 1 3 2 5 5 6 8 3 17-1 24-5l25-16 3-1 5-4c4-3 7-5 13-5l7 6c1 7 1 7-2 11l-11 8-2 2c-21 13-41 25-66 22l-9-4-2-1c-6-4-9-11-12-17l-2 2a254 254 0 0 1-16 20c-7 6-13 8-21 8-6 0-10-3-14-6l-1 3-4 8-2 4-2 3-1 2c-47 80-47 80-79 91-8 1-15 0-22-4-11-10-15-24-16-38v-18c0-24 4-47 8-70l-3 2c-17 10-36 19-57 14l-6-3-2-1c-6-4-9-11-12-17l-2 2a254 254 0 0 1-16 20c-6 6-13 8-21 8-6 0-10-3-14-7l-4-10-1 1c-9 7-16 9-27 8-7-2-13-6-18-11l-2-2c-7-7-11-17-15-27l-1-2-2-5c-2-5-2-5-6-8-5 6-8 12-12 19l-2 3a277 277 0 0 0-14 33c-8 19-8 19-16 23-6 1-10 2-15 0-5-3-7-6-9-12-2-9-1-18 1-27l-2 1c-18 10-36 19-57 14l-6-3-2-1c-6-4-9-11-12-17l-2 2-14 18-2 2c-6 6-13 8-21 8-6 0-10-3-14-7-4-6-4-14-3-22 5-24 24-53 44-67 6-4 12-5 19-4l5 2c3 0 4-1 7-3h10c3 2 5 4 6 7 1 7-2 12-4 18-6 14-11 28-9 44 1 3 2 5 5 6 8 3 17-1 24-5a221 221 0 0 0 24-14c12-6 15-20 19-32 4-14 10-27 21-37 3-1 5-2 9-1 5 2 7 5 9 10 3 7-1 16-4 24l-1 3-2 7 2-2c6-6 11-10 20-11 7 0 13 2 18 7 8 9 12 21 17 32 4 11 4 11 13 19 10-1 16-10 22-18l5-6 2-3 5-3 3-3 1-3 17-23 2-2c6-7 13-12 22-13 4-1 8 0 12 2 3 0 4-1 7-3h10c3 2 5 4 6 7 1 7-2 12-4 18-6 14-11 28-9 44 1 3 2 5 5 6 8 3 17-1 24-5l15-9 9-5c7-3 11-6 13-12a717 717 0 0 1 25-103l1-2 10-30a1064 1064 0 0 0-130 8l-1 3c-1 3-2 4-5 6h-11c-4-3-6-5-8-9 0-5 0-9 3-13 10-10 26-9 39-10a63762 63762 0 0 0 95-4h14c5 0 5 0 10-3l6-13c12-35 12-35 24-40h9Zm-17 12c-6 10-10 22-15 33l-2 5-1 3c-1 3-3 4-6 6a62 62 0 0 1-11 1h-26a1432 1432 0 0 0-92 4l-3 1c-8 0-15 2-22 7-2 3-2 7-1 11l6 6c4 0 8 0 11-3l2-5 17-4h3l31-3h3l82-2a11570 11570 0 0 1-9 30c-10 29-16 59-23 89v2l-1 2-1 7-1 6c-1 5-4 8-8 11a233 233 0 0 1-15 10c-30 18-30 18-44 16-4-2-6-5-8-10-2-16 4-33 10-48 3-5 4-9 3-15l-5-3c-5 0-6 1-10 4l-2 2-2-2c-4-3-8-3-13-3-8 2-13 7-19 13l-2 2-11 15-2 2-4 8-3 3-3 1-4 4-2 2-11 15c-4 4-8 8-14 9-3 1-6 0-9-2l-6-9-1-2-5-12-1-3-3-5c-4-10-9-18-18-23-6-2-11-2-17 1-8 5-13 15-18 24l-5 9c0-6 2-12 4-18a343 343 0 0 0 10-41c-2-4-2-4-6-7h-7c-5 5-9 10-12 16l-1 3c-6 12-12 25-14 38l-1 4-5 2-4 3c-15 11-33 24-51 23-4 0-6-1-8-4-5-9-4-20-1-30l8-24c3-5 4-9 3-15l-5-3c-5 0-6 1-10 4l-2 2-2-2c-4-3-8-3-13-3-8 2-13 7-19 13l-2 2c-9 10-16 21-22 33l-1 2c-6 11-10 22-7 34 1 5 3 7 7 9 6 2 11 2 17 0 9-6 15-14 21-22l2-3 2-3 2-2 2-6h2v3c1 9 5 15 11 21 4 3 9 5 14 5h2c19 1 38-10 54-20l-1 3c-3 12-5 27 1 37 3 3 6 3 10 3 5 0 7-1 11-4 5-6 7-12 10-19l13-28 1-4c9-18 9-18 15-23h5l7 11 1 3 3 6c6 14 13 28 28 34 7 2 13 1 19-2 5-2 10-6 14-10v2l1 4v3c1 4 2 7 6 9 6 3 11 4 17 2 10-4 17-14 23-22l2-3 2-3 2-2 2-6h2v3c1 9 5 15 11 21 4 3 9 5 14 5h2c20 1 39-11 55-21v2l-7 39-1 3-2 35v3c0 7 0 15 2 22v2c2 9 6 18 13 24 6 4 12 4 19 3 9-2 15-7 22-13l2-2c7-6 12-14 18-21l1-2a559 559 0 0 0 48-75l1 2c3 5 8 6 13 7 7 1 11-2 16-6 6-5 10-11 15-17l2-3 2-3 2-2 2-6h2v3c1 9 5 15 11 21 4 3 9 5 14 5h2c25 1 52-17 70-32l1-1-1-7c-4-2-5-3-9-2l-7 5-18 12-3 2c-23 14-23 14-37 12-4-2-6-5-8-10-2-16 4-33 10-48 3-5 4-9 3-15l-5-3c-5 0-6 1-10 4l-2 2-2-2c-4-3-8-3-13-3-8 2-13 7-19 13l-2 2-11 15-2 2-4 8-1 2-3 1-8 15a736 736 0 0 1-66 106l-2 3c-7 8-17 16-28 17-4-2-6-5-8-9-5-27 1-57 5-84l2-10c3-20 7-40 12-59l3-8a1082 1082 0 0 1 40-112l7-1h2a368 368 0 0 1 36-2 3559 3559 0 0 1 104-3c16 1 16 1 30-6 1-5 1-8-2-12-4-5-9-7-16-8l-7 3c-2 3-3 5-3 9-5 2-11 2-17 2h-2a3115131357 3115131357 0 0 0-129 5l4-24 1-2 4-15c1-4 2-6 1-10-2-3-4-5-8-6-6 2-9 5-12 10Z"/><path fill="#FAF6F5" d="M643 295c6 4 9 9 11 16v27c0 103-13 206-32 307l-1 4a3405 3405 0 0 1-5 29c-11 56-11 56-24 67-4 3-9 3-14 2-4-2-6-4-7-8-2-10 2-19 4-29l4-14 1-3a1473 1473 0 0 0 49-368l-5-1-5 5-2 2-12 19-7 10c-12 19-24 39-34 59l-8 14a5406 5406 0 0 0-40 74c-21 42-21 42-37 50-7 1-13 0-19-4-13-11-13-33-15-48a1336 1336 0 0 0-1-16 565 565 0 0 1-3-78 12501 12501 0 0 0 0-33v-2l-1-7a463 463 0 0 0-18 35 1361 1361 0 0 0-84 231c-5 16-6 31-6 47 0 9 0 9-3 13-4 4-7 6-13 6-3 0-6 0-8-2-5-5-5-10-5-17l3-16 1-3a1369 1369 0 0 1 5-16 2181 2181 0 0 1 43-133c49-139 49-139 72-167l1-2c4-4 8-7 13-9 5 0 9-1 14 1 9 8 11 19 13 31l1 3 3 30v38a1282 1282 0 0 0 4 80v8c3-2 5-5 6-8l2-2 1-3 4-5 1-3 6-9a2146 2146 0 0 0 72-127c50-84 50-84 75-75Zm-36 21c-14 17-24 37-35 55a3974 3974 0 0 1-33 58l-1 2a1505 1505 0 0 1-52 89l-2 3-2 3-1 3-6 5c-2-7-3-13-3-20v-3a2092 2092 0 0 1-8-148v-3c-2-7-4-15-11-20-6-1-10-1-15 1-12 8-18 22-24 35l-4 8a639 639 0 0 0-20 46 1710 1710 0 0 0-78 228v2l-2 7c-3 9-5 19-2 27l4 4c5 1 8 0 12-3 4-2 5-5 5-10v-10a158 158 0 0 1 11-61 1565 1565 0 0 1 47-138l1-2a1128 1128 0 0 1 26-62c18-40 18-40 25-47l4 1 1 9v3a2005 2005 0 0 1 0 35 1335 1335 0 0 0 5 99c1 14 4 30 15 40 5 2 11 2 16 0 18-10 28-37 37-54a851 851 0 0 1 24-45 2880 2880 0 0 1 23-42c46-84 46-84 59-91 6 0 6 0 9 3 2 3 1 6 1 10v2a757 757 0 0 1-5 109 1056 1056 0 0 1-16 115 1508 1508 0 0 1-36 161c-3 10-3 10-1 20 3 3 5 4 9 4s6-2 9-5c4-6 6-13 9-20v-3a279340 279340 0 0 1 14-59 1515 1515 0 0 0 22-134l3-24a65321 65321 0 0 1 7-90l3-56v-35c0-7-2-12-6-17-3-3-6-4-10-4-12 1-21 10-28 19Z"/><path fill="#FBF7F5" d="M862 473c4 3 7 6 7 11 1 9-2 17-5 26a1813 1813 0 0 0-5 15l1-2c23-28 23-28 39-31 9-1 16 1 24 7 3 3 6 6 6 11s-1 7-3 10c-4 3-6 4-11 4-4-1-6-4-10-6-3-2-4-2-8-2-25 10-37 47-47 70-10 21-10 21-19 25-5 1-9 1-13-2-6-4-8-10-8-17l2-30-3 2c-17 10-36 19-57 14l-6-3-2-1c-6-4-9-11-12-17l-2 2-14 18-2 2c-6 6-13 8-21 8-6 0-10-3-14-7-4-6-4-14-3-22 5-24 24-53 44-67 6-4 12-5 19-4l5 2c3 0 4-1 7-3h10c3 2 5 4 6 7 1 7-2 12-4 18-6 14-11 28-9 44 1 3 2 5 5 6 8 3 17-1 24-5 10-5 20-12 30-19l6-3v-3c3-19 13-42 28-55 5-4 9-4 15-3Zm-17 9c-11 13-20 32-23 50-2 6-6 8-11 11l-2 2a692 692 0 0 1-14 8c-11 7-23 14-37 12-4-2-6-5-8-10-2-16 4-33 10-48 3-5 4-9 3-15l-5-3c-5 0-6 1-10 4l-2 2-2-2c-4-3-8-3-13-3-8 2-13 7-19 13l-2 2c-14 15-31 40-32 61 1 5 1 10 5 14 5 4 11 5 17 4 11-3 18-14 25-23l2-3 2-3 2-2 2-6h2v3c1 9 5 15 11 21 4 3 9 5 14 5h2c20 1 39-11 55-21l-1 3-2 29-1 3c0 6 2 11 6 16 4 3 6 2 10 2 8-4 12-14 16-22l2-2 10-21c17-37 17-37 35-49 4-1 8-2 13-1l8 6 5 1c4-1 5-2 7-5 1-4 0-6-2-10-4-5-8-9-15-9-9-1-15 1-22 6l-3 2c-11 9-20 21-28 33l-2 2-1 2-3 2 1-3a8419 8419 0 0 0 15-44c1-7 1-11-1-17-7-6-13-3-19 3ZM1508 510l3 1c1 10-5 17-10 24l-2 3-11 15-2 1-11 11 5-15 2-3c7-13 15-27 26-37Zm-2 7c-10 12-10 12-18 26l1 2 14-20 1-1 3-5-1-2Zm-19 28 1 2ZM1256 510l3 1c1 10-5 17-10 24l-2 3-11 15-2 1-11 11 5-15 2-3c7-13 15-27 26-37Zm-2 7c-10 12-10 12-18 26l1 2 14-20 1-1 3-5-1-2Zm-19 28 1 2ZM981 510l3 1c1 10-5 17-10 24l-2 3-11 15-2 1-11 11 5-15 2-3c7-13 15-27 26-37Zm-2 7c-10 12-10 12-18 26l1 2 14-20 1-1 3-5-1-2Zm-19 28 1 2Z"/><path fill="#FBF7F5" d="m731 510 3 1c1 10-5 17-10 24l-2 3-11 15-2 1-11 11 5-15 2-3c7-13 15-27 26-37Zm-2 7c-10 12-10 12-18 26l1 2 14-20 1-1 3-5-1-2Zm-19 28 1 2Z"/></svg>