<?xml version="1.0" encoding="UTF-8"?>
<svg version="1.1" xmlns="http://www.w3.org/2000/svg" width="1920" height="1080">
<path d="M0 0 C5.78875956 4.90786137 5.78875956 4.90786137 6.21630859 9.14233398 C6.38298347 16.92120695 4.8134714 23.63298698 2.625 31.0625 C1.98910474 33.28167105 1.3562448 35.50171431 0.7265625 37.72265625 C0.44377441 38.68953369 0.16098633 39.65641113 -0.13037109 40.65258789 C-1.27704389 45.06640898 -2.14217288 49.52233975 -3 54 C17.78323429 54.11554142 38.52916854 53.90821227 59.30224609 53.25537109 C62.79997313 53.14551722 66.29789519 53.04476592 69.79595947 52.94632339 C84.90934271 52.51706582 100.00122569 51.9024363 115.09375 50.9921875 C115.79254776 50.95053593 116.49134552 50.90888435 117.21131897 50.86597061 C121.47679961 50.60876846 125.73860734 50.3174637 130 50 C130.87156738 49.94450989 131.74313477 49.88901978 132.64111328 49.83184814 C135.00581126 49.67182803 135.00581126 49.67182803 138 49 C139.7758544 45.68994963 139.7758544 45.68994963 141 42 C144.42916323 38.1674058 147.6935742 37.23622642 152.66796875 36.90625 C159.06693948 37.16349505 163.90988547 40.12194863 168.5234375 44.3984375 C171.70289576 47.84705625 172.86122421 50.88979371 173.4375 55.5 C172.9003512 59.79719042 171.8694861 61.76263107 169 65 C160.8889341 69.52347906 151.55802769 69.20254216 142.5 69.5 C141.28812012 69.54278076 140.07624023 69.58556152 138.82763672 69.62963867 C131.29416016 69.8789115 123.76343873 70.0441458 116.2265625 70.14453125 C89.63550193 70.52204761 63.11785522 71.62490658 36.5625 73 C34.80023197 73.0906277 33.0379639 73.18125474 31.2756958 73.2718811 C27.06159991 73.48936476 22.84772915 73.71080057 18.63401985 73.93564796 C17.06786809 74.01911858 15.50167994 74.10190977 13.93545341 74.18396568 C10.44946764 74.36751702 6.9666535 74.56491068 3.48318481 74.79345703 C1.38197463 74.91805283 -0.72325451 74.99987513 -2.82815552 74.99951172 C-5.88145108 75.07546064 -8.25468768 75.26872815 -10.50009155 77.47183228 C-13.99445113 82.65527309 -16.06685104 88.74282062 -18.19140625 94.5859375 C-18.76418053 96.13950455 -18.76418053 96.13950455 -19.348526 97.72445679 C-24.26227866 111.23021669 -28.61408146 124.9219169 -32.9375 138.625 C-33.37914964 140.02104668 -33.82083086 141.41708336 -34.26254272 142.81311035 C-69.6349047 244.92313602 -69.6349047 244.92313602 -66.75 348.1875 C-65.09665417 350.28125105 -65.09665417 350.28125105 -62.25390625 350.33203125 C-56.17900269 349.71214313 -51.77652154 345.56688297 -47 342 C-46.23429687 341.43410156 -45.46859375 340.86820313 -44.6796875 340.28515625 C-10.90246966 312.80221701 11.36134762 260.17544942 30.92871094 221.76489258 C31.66976074 220.31699341 31.66976074 220.31699341 32.42578125 218.83984375 C33.06640503 217.57708618 33.06640503 217.57708618 33.7199707 216.28881836 C34.99567454 214.00773435 36.29225206 211.97998523 38 210 C38.66 210 39.32 210 40 210 C40.25652344 209.29101562 40.51304687 208.58203125 40.77734375 207.8515625 C44.89088741 198.25767473 52.1838354 189.79994093 59 182 C59.70898438 181.18273437 60.41796875 180.36546875 61.1484375 179.5234375 C67.05712624 173.14546663 74.01940536 167.92200834 82.8125 166.56640625 C87.39928882 166.45037141 90.79016056 167.14271789 95 169 C97.79978817 168.72905276 99.27531483 167.8271279 101.6875 166.3125 C105.68151718 164.72996489 107.87019879 164.95219241 111.94140625 166.078125 C115.38817788 167.62165081 116.52560299 169.60247646 118 173 C118.79378158 179.75150486 116.32201054 184.86089308 113.75 190.9375 C107.96016653 205.24412308 103.01475574 219.31478186 105 235 C106.31241715 237.90979338 107.28486037 239.50961854 109.9140625 241.3125 C117.97262538 243.96850574 126.90200734 239.56272778 134.01806641 236.03662109 C142.75537141 231.46670276 151.06060331 226.09300678 159.125 220.43359375 C159.97102783 219.8413501 160.81705566 219.24910645 161.6887207 218.63891602 C163.31646653 217.48987218 164.93535958 216.32815044 166.54370117 215.15209961 C170.99436723 211.99127165 174.34721338 210.03493688 180 210 C185.46835443 212.93670886 185.46835443 212.93670886 187 216 C187.69921154 222.99211542 187.69921154 222.99211542 184.96484375 226.93359375 C181.83438045 230.44347362 178.15919507 232.84445283 174.1875 235.3125 C173.07133301 236.01862427 173.07133301 236.01862427 171.93261719 236.73901367 C151.299396 249.66855543 131.15801309 261.55354423 106 259 C102.50744748 258.1887378 99.92562351 257.04922527 97 255 C96.09121094 254.41605469 96.09121094 254.41605469 95.1640625 253.8203125 C89.36591708 249.54133182 86.32589905 243.24743347 83 237 C82.10861328 238.19882812 82.10861328 238.19882812 81.19921875 239.421875 C76.77286991 245.31373473 72.234668 251.07481366 67.3125 256.5625 C66.46300781 257.51253906 65.61351562 258.46257812 64.73828125 259.44140625 C58.49724197 265.27290515 52.31676258 267.34895207 43.86328125 267.29296875 C38.39713899 266.73367725 34.47440396 263.98293597 30 261 C29.73082764 261.8772876 29.46165527 262.7545752 29.18432617 263.65844727 C28.05475018 266.84552347 26.72922483 269.53682027 25.05078125 272.46484375 C24.45765137 273.50060547 23.86452148 274.53636719 23.25341797 275.60351562 C22.29266357 277.25383789 22.29266357 277.25383789 21.3125 278.9375 C20.98219788 279.50702393 20.65189575 280.07654785 20.31158447 280.66333008 C-26.56234112 361.35583336 -26.56234112 361.35583336 -59.1328125 371.67578125 C-66.95934587 373.03478181 -74.15877976 372.15838877 -81 368 C-92.07755262 358.45038568 -95.92343408 344.17681588 -97 330 C-97.19538068 324.70802885 -97.24572259 319.41985572 -97.25 314.125 C-97.25067474 313.37257019 -97.25134949 312.62014038 -97.25204468 311.84490967 C-97.21850629 288.13671514 -93.43080143 265.24001368 -89 242 C-89.85980469 242.50789062 -90.71960937 243.01578125 -91.60546875 243.5390625 C-109.35507802 253.92148264 -127.86544662 263.21235689 -148.9765625 258.30859375 C-151.20402742 257.39387878 -153.03083283 256.37928449 -155 255 C-155.60585937 254.61070312 -156.21171875 254.22140625 -156.8359375 253.8203125 C-162.63408292 249.54133182 -165.67410095 243.24743347 -169 237 C-169.59425781 237.79921875 -170.18851563 238.5984375 -170.80078125 239.421875 C-175.22713009 245.31373473 -179.765332 251.07481366 -184.6875 256.5625 C-185.53699219 257.51253906 -186.38648438 258.46257812 -187.26171875 259.44140625 C-193.49688545 265.26741793 -199.6904223 267.37785495 -208.14453125 267.27734375 C-213.80281955 266.72776992 -218.04320149 264.34232804 -221.875 260.1875 C-224.21820163 256.67269756 -225.10158432 254.08370765 -226 250 C-226.72703125 250.59748047 -226.72703125 250.59748047 -227.46875 251.20703125 C-235.92773912 257.89288611 -243.1112271 260.23800002 -254 259 C-261.46070807 257.19394963 -266.67629881 253.39066598 -272 248 C-272.58394531 247.44957031 -273.16789062 246.89914062 -273.76953125 246.33203125 C-281.11073813 238.82510863 -285.03882483 228.53196258 -289.1796875 219.03125 C-289.53683838 218.21317871 -289.89398926 217.39510742 -290.26196289 216.55224609 C-290.9508761 214.96052516 -291.63011689 213.36457531 -292.29858398 211.76416016 C-294.2460591 207.18580919 -294.2460591 207.18580919 -298 204 C-302.79210252 209.94021042 -306.49959556 216.16713213 -310 222.9375 C-310.55324951 223.99783447 -311.10649902 225.05816895 -311.67651367 226.15063477 C-314.93902972 232.54256828 -317.91691075 238.99993579 -320.67578125 245.625 C-320.98063446 246.35626602 -321.28548767 247.08753204 -321.59957886 247.84095764 C-323.08937783 251.43396289 -324.55114027 255.03580864 -325.97851562 258.65405273 C-333.64113682 277.73866964 -333.64113682 277.73866964 -342.5 282.125 C-347.79863219 283.44965805 -351.90927985 283.73790123 -357.1875 281.875 C-362.04920403 278.63386398 -364.41459423 275.67258792 -366.3125 270.25 C-368.13902054 261.04781557 -366.56791999 252.13058647 -365 243 C-365.62342285 243.34256836 -366.2468457 243.68513672 -366.88916016 244.03808594 C-384.96540978 253.90391446 -402.75042174 263.27987474 -423.96484375 258.3046875 C-426.20175712 257.39462702 -428.02537588 256.38310676 -430 255 C-430.60585938 254.61070312 -431.21171875 254.22140625 -431.8359375 253.8203125 C-437.63408292 249.54133182 -440.67410095 243.24743347 -444 237 C-444.89138672 238.19882812 -444.89138672 238.19882812 -445.80078125 239.421875 C-450.22713009 245.31373473 -454.765332 251.07481366 -459.6875 256.5625 C-460.53699219 257.51253906 -461.38648438 258.46257812 -462.26171875 259.44140625 C-468.49688545 265.26741793 -474.6904223 267.37785495 -483.14453125 267.27734375 C-488.94221262 266.71423106 -493.12906605 264.28844591 -496.9375 259.9375 C-501.41494549 253.56053218 -500.87541996 245.50026472 -500 238 C-494.91533739 214.36350057 -476.17327568 184.75243624 -456 171 C-449.81410477 167.29545257 -444.17323164 166.1064922 -437 167 C-435.31624835 167.62225605 -433.64232772 168.27544365 -432 169 C-429.20021183 168.72905276 -427.72468517 167.8271279 -425.3125 166.3125 C-421.31848282 164.72996489 -419.12980121 164.95219241 -415.05859375 166.078125 C-411.61182212 167.62165081 -410.47439701 169.60247646 -409 173 C-408.20621842 179.75150486 -410.67798946 184.86089308 -413.25 190.9375 C-419.03983347 205.24412308 -423.98524426 219.31478186 -422 235 C-420.68758285 237.90979338 -419.71513963 239.50961854 -417.0859375 241.3125 C-409.0369026 243.96536543 -400.11350845 239.57175855 -393.00390625 236.04980469 C-386.83793207 232.81957942 -380.98734778 229.11568158 -375.15576172 225.32470703 C-373.18537543 224.11391247 -371.21904998 223.10465892 -369.12890625 222.12109375 C-356.55987858 215.65977774 -353.96060695 202.11453698 -349.88453674 189.57757568 C-345.56028107 176.407699 -339.77259204 162.50359742 -328.9375 153.4375 C-325.52197035 151.7660706 -323.7506277 151.37489538 -320 152 C-315.33132919 154.24096199 -312.7031538 156.95154227 -310.69897461 161.64892578 C-308.38367279 169.43668567 -312.0828932 178.2696515 -314.5625 185.625 C-314.89185547 186.62917969 -315.22121094 187.63335937 -315.56054688 188.66796875 C-316.36461996 191.1151477 -317.1778487 193.55884799 -318 196 C-316.85144531 194.84371094 -316.85144531 194.84371094 -315.6796875 193.6640625 C-309.79373528 187.8124307 -304.65836171 183.5345661 -296.1875 182.5625 C-289.49928115 182.87357995 -283.24008311 185.48120742 -278.3125 190 C-270.1327159 199.14769359 -265.75451646 210.75368451 -261.08300781 221.92724609 C-256.65691309 233.32539279 -256.65691309 233.32539279 -248.1875 241.4375 C-238.00076579 240.03932079 -231.89996286 230.57637892 -226 223 C-224.40380277 220.95209671 -222.80003846 218.91006098 -221.1875 216.875 C-220.50042969 215.98554687 -219.81335937 215.09609375 -219.10546875 214.1796875 C-217 212 -217 212 -214.36328125 211.0078125 C-211.79858494 210.22129674 -211.79858494 210.22129674 -210.91015625 207.7265625 C-210.60980469 206.82679688 -210.30945312 205.92703125 -210 205 C-205.08382574 196.77100807 -199.30001098 189.20929092 -193 182 C-192.29101562 181.18273437 -191.58203125 180.36546875 -190.8515625 179.5234375 C-184.94287376 173.14546663 -177.98059464 167.92200834 -169.1875 166.56640625 C-164.60071118 166.45037141 -161.20983944 167.14271789 -157 169 C-154.20021183 168.72905276 -152.72468517 167.8271279 -150.3125 166.3125 C-146.31848282 164.72996489 -144.12980121 164.95219241 -140.05859375 166.078125 C-136.61182212 167.62165081 -135.47439701 169.60247646 -134 173 C-133.20621842 179.75150486 -135.67798946 184.86089308 -138.25 190.9375 C-144.03983347 205.24412308 -148.98524426 219.31478186 -147 235 C-145.68758285 237.90979338 -144.71513963 239.50961854 -142.0859375 241.3125 C-134.03367175 243.96643028 -125.10707957 239.56855007 -117.99511719 236.04541016 C-112.66720743 233.25366889 -107.57297329 230.11717004 -102.54296875 226.82421875 C-99.63354684 224.93499182 -96.82671456 223.44364028 -93.61328125 222.14453125 C-87.37882738 219.34183403 -83.30615069 216.147716 -80.63134766 209.70166016 C-77.91460079 201.46875052 -76.34168076 192.8870989 -74.68225098 184.39280701 C-72.68865 174.206802 -70.27347289 164.12715221 -67.840271 154.03857422 C-67.06332395 150.8159176 -66.29350178 147.59161119 -65.52392578 144.3671875 C-62.50866407 131.80427836 -59.29099815 119.3268449 -55.625 106.9375 C-55.4318924 106.28214264 -55.23878479 105.62678528 -55.03982544 104.9515686 C-52.04129839 94.84257626 -48.5708588 84.91728322 -45 75 C-83.1113861 75.61936982 -121.1352458 76.30304848 -159 81 C-160.75648618 81.21244009 -162.5129949 81.42469392 -164.26953125 81.63671875 C-167.84871735 82.07359714 -171.42522713 82.52817439 -175 83 C-175.29648438 83.95261719 -175.59296875 84.90523438 -175.8984375 85.88671875 C-177.14283133 89.40367577 -177.70063329 90.35031664 -181 92 C-185.53001273 93.0229061 -187.8651976 93.39281621 -192.25 91.875 C-195.92238961 89.37109799 -198.37839825 87.30333253 -199.5703125 82.88671875 C-200.3828797 77.74334129 -200.06955337 74.39969317 -197 70 C-187.45035991 60.45035991 -171.102404 60.73850406 -158.5 60 C-157.15746806 59.91801205 -155.81493886 59.83597916 -154.47241211 59.75390625 C-144.07547242 59.13105744 -133.67274946 58.61210835 -123.26858521 58.12664795 C-121.46210462 58.04210255 -119.65568696 57.95620207 -117.84933472 57.86895752 C-107.1651402 57.35592661 -96.48892794 56.96562474 -85.79359436 56.77996826 C-80.64823358 56.68859787 -75.50363381 56.56955819 -70.3588562 56.45019531 C-67.83820655 56.40026822 -65.31723038 56.36466774 -62.7961731 56.34375 C-59.25961252 56.31370779 -55.7269476 56.23583126 -52.19140625 56.1484375 C-50.60223389 56.1542836 -50.60223389 56.1542836 -48.98095703 56.1602478 C-43.59377095 56.07943199 -43.59377095 56.07943199 -39.25062561 53.26792908 C-36.56843539 49.08877947 -34.90637875 44.5036321 -33.3125 39.8125 C-20.95218454 5.31598322 -20.95218454 5.31598322 -9.48828125 -0.2109375 C-5.92809661 -1.33991285 -3.59100922 -0.96187747 0 0 Z M-447 197 C-456.90548348 209.39267872 -456.90548348 209.39267872 -465 223 C-464.67 223.66 -464.34 224.32 -464 225 C-459.05109828 218.61205593 -454.2993748 212.13816196 -449.875 205.375 C-449.47289307 204.77155762 -449.07078613 204.16811523 -448.65649414 203.54638672 C-447.70599344 202.07082547 -446.84374785 200.53909784 -446 199 C-446.33 198.34 -446.66 197.68 -447 197 Z M-172 197 C-181.90548348 209.39267872 -181.90548348 209.39267872 -190 223 C-189.67 223.66 -189.34 224.32 -189 225 C-184.05109828 218.61205593 -179.2993748 212.13816196 -174.875 205.375 C-174.47289307 204.77155762 -174.07078613 204.16811523 -173.65649414 203.54638672 C-172.70599344 202.07082547 -171.84374785 200.53909784 -171 199 C-171.33 198.34 -171.66 197.68 -172 197 Z M80 197 C70.09451652 209.39267872 70.09451652 209.39267872 62 223 C62.33 223.66 62.66 224.32 63 225 C67.94890172 218.61205593 72.7006252 212.13816196 77.125 205.375 C77.52710693 204.77155762 77.92921387 204.16811523 78.34350586 203.54638672 C79.29400656 202.07082547 80.15625215 200.53909784 81 199 C80.67 198.34 80.34 197.68 80 197 Z M-466 225 C-465 227 -465 227 -465 227 Z M-191 225 C-190 227 -190 227 -190 227 Z M61 225 C62 227 62 227 62 227 Z " fill="#AF530C" transform="translate(1426,320)"/>
<path d="M0 0 C5.88127093 4.10321228 8.84770481 8.99385104 10.6875 15.875 C11.09580288 19.29158545 11.10800303 22.66742251 11.0859375 26.10546875 C11.0900766 27.10393326 11.0942157 28.10239777 11.09848022 29.13111877 C11.10471944 32.44187866 11.08551787 35.75182133 11.0625 39.0625 C11.05851196 40.21536499 11.05452393 41.36822998 11.05041504 42.55603027 C10.63776325 145.75777302 -2.17027228 248.60358433 -21.3125 349.875 C-21.55071472 351.14079895 -21.78892944 352.4065979 -22.03436279 353.71075439 C-23.43872065 361.16573581 -24.86384117 368.61627175 -26.31799316 376.06170654 C-26.76178621 378.33973033 -27.20153637 380.6185467 -27.63659668 382.89825439 C-38.34797732 438.8004461 -38.34797732 438.8004461 -51.3125 449.875 C-55.7545853 452.59935585 -60.24679156 452.65003741 -65.3125 451.875 C-68.90530817 450.16658305 -70.87459887 447.69368472 -72.75 444.1875 C-74.42868029 434.30193829 -70.74224401 424.38818384 -68.10864258 414.94882202 C-66.83239164 410.36265355 -65.59062558 405.76715557 -64.34765625 401.171875 C-64.09166656 400.22648361 -63.83567688 399.28109222 -63.57192993 398.30705261 C-39.10293377 307.6308809 -23.26404997 214.0505465 -16.5625 120.375 C-16.50324341 119.54742187 -16.44398682 118.71984375 -16.38293457 117.8671875 C-14.84739001 96.05171365 -14.16142141 74.30638275 -14.25 52.4375 C-14.25503555 50.22981875 -14.25959475 48.02213636 -14.26367188 45.81445312 C-14.27449062 40.50127644 -14.29105898 35.18814391 -14.3125 29.875 C-16.69441213 29.20255884 -16.69441213 29.20255884 -19.3125 28.875 C-21.35448758 30.48709546 -22.69685956 31.87975349 -24.3125 33.875 C-24.81394531 34.46152344 -25.31539062 35.04804688 -25.83203125 35.65234375 C-30.70364881 41.59640172 -34.64875292 48.07340047 -38.6640625 54.60546875 C-40.75888045 58.00627718 -42.9227314 61.35355837 -45.12158203 64.68774414 C-57.72724135 83.84413663 -69.00378168 103.80167776 -79.78759766 124.02685547 C-82.24541379 128.61745474 -84.7493028 133.18266551 -87.25 137.75 C-93.37275155 148.9583819 -99.43097229 160.20117258 -105.47412109 171.45263672 C-107.03371571 174.35600954 -108.59459232 177.25868871 -110.15591431 180.16113281 C-111.75113399 183.12752647 -113.34442699 186.09495311 -114.9375 189.0625 C-115.25154785 189.6470697 -115.5655957 190.2316394 -115.88916016 190.83392334 C-119.69697672 197.92546619 -123.44365916 205.04390795 -127.12158203 212.20361328 C-148.48607683 253.71831688 -148.48607683 253.71831688 -164.4375 261.375 C-171.71952441 262.64143903 -177.03888547 261.73304397 -183.3125 257.875 C-196.46811357 246.90228691 -196.74040815 225.17664139 -198.19287109 209.40039062 C-198.43531102 206.77371618 -198.69122114 204.14862458 -198.94921875 201.5234375 C-199.11538735 199.78393078 -199.28077584 198.04434934 -199.4453125 196.3046875 C-199.51823517 195.55500702 -199.59115784 194.80532654 -199.66629028 194.03292847 C-201.08908929 178.37032182 -201.46008608 162.65650367 -201.57286072 146.93813515 C-201.59436067 143.96637309 -201.62131522 140.99470044 -201.64953613 138.022995 C-201.71840315 130.66938958 -201.77914362 123.3157233 -201.83856201 115.96203613 C-201.88941059 109.68786647 -201.94408384 103.41375569 -202.00437927 97.13966942 C-202.03094256 94.20969239 -202.05173428 91.27970944 -202.0723877 88.34968567 C-202.08897159 86.57467366 -202.1058417 84.7996643 -202.12304688 83.0246582 C-202.12723129 82.20875717 -202.13141571 81.39285614 -202.13572693 80.55223083 C-201.83613455 76.91358686 -201.83613455 76.91358686 -203.3125 73.875 C-208.87673688 83.56089383 -214.24362308 93.29694856 -219.09716797 103.36132812 C-219.95931817 105.14451384 -220.82890078 106.92411467 -221.70361328 108.70117188 C-256.86899775 180.36576125 -282.7101664 258.79745554 -304.47979736 335.47793579 C-304.89866115 336.95295367 -305.32110301 338.42696191 -305.7477417 339.89974976 C-310.24216758 355.49846997 -311.68664157 370.50927579 -311.14648438 386.734375 C-310.97196823 395.97771293 -310.97196823 395.97771293 -314.3125 399.875 C-318.21197042 403.80423737 -321.50699019 406.03114658 -327.0625 406.25 C-330.6830127 406.21337632 -332.94325339 405.95306849 -335.8125 403.6875 C-340.42480633 398.49865538 -340.69998589 393.86343913 -340.57543945 387.14260864 C-340.13579805 381.67908454 -338.70211499 376.61280592 -337.15625 371.37109375 C-336.82266479 370.19525726 -336.48907959 369.01942078 -336.14538574 367.80795288 C-335.23953258 364.63161739 -334.31924974 361.45997242 -333.39044189 358.29028702 C-332.80714432 356.29417222 -332.2295276 354.2965002 -331.65380859 352.29818726 C-319.46476596 309.99124089 -306.02681986 268.15970119 -291.30273438 226.66607666 C-290.3484808 223.97641556 -289.39660134 221.28592572 -288.4453125 218.59521484 C-239.49429594 80.26618829 -239.49429594 80.26618829 -216.3125 51.875 C-215.85230469 51.26527344 -215.39210938 50.65554688 -214.91796875 50.02734375 C-211.50181194 45.61345225 -207.61369193 42.64206398 -202.3125 40.875 C-197.52208756 40.48939405 -192.95176842 40.23354714 -188.4375 42 C-179.11105564 50.22921561 -176.94298466 60.93920195 -175.125 72.875 C-174.96064453 73.87789063 -174.79628906 74.88078125 -174.62695312 75.9140625 C-173.01913689 85.99057882 -172.20547191 96.08289755 -171.77734375 106.2734375 C-171.73560532 107.25234955 -171.69386688 108.2312616 -171.65086365 109.23983765 C-171.19404951 120.727811 -171.06836529 132.22011213 -170.92407227 143.71539307 C-170.63294421 166.16810145 -170.03342906 188.54707457 -168.56640625 210.95410156 C-168.27693614 215.42418814 -168.01104315 219.89536688 -167.75 224.3671875 C-167.70617187 225.11694855 -167.66234375 225.86670959 -167.6171875 226.63919067 C-167.51534533 228.38444415 -167.41387887 230.12971955 -167.3125 231.875 C-164.72016527 229.40550522 -162.63655403 227.07435373 -160.82421875 223.98828125 C-160.14782349 222.84818604 -160.14782349 222.84818604 -159.45776367 221.68505859 C-158.97670166 220.86086426 -158.49563965 220.03666992 -158 219.1875 C-156.92744447 217.37348434 -155.85451035 215.55969249 -154.78125 213.74609375 C-154.21664062 212.78815918 -153.65203125 211.83022461 -153.0703125 210.84326172 C-151.30142588 207.85630012 -149.51366852 204.88153942 -147.71875 201.91015625 C-132.36915037 176.49880875 -117.6532066 150.72865548 -103.37109375 124.703125 C-95.52797652 110.41390276 -87.56460353 96.21458991 -79.26708984 82.18212891 C-77.86878068 79.81621635 -76.47309843 77.44889606 -75.08056641 75.07958984 C-25.79546847 -8.76072514 -25.79546847 -8.76072514 0 0 Z " fill="#AF530C" transform="translate(643.3125,295.125)"/>
<path d="M0 0 C3.645477 2.75270712 6.69667062 5.90483211 7.37109375 10.56323242 C7.57915 20.29062703 5.15594091 28.25876214 2 37.3125 C1.51643977 38.74614248 1.03465731 40.18038587 0.5546875 41.61523438 C-0.60985549 45.08397098 -1.79803323 48.54402587 -3 52 C-2.50588623 51.36731201 -2.01177246 50.73462402 -1.50268555 50.08276367 C20.69190283 21.95624869 20.69190283 21.95624869 37 19 C46.48447168 18.08889327 53.41551016 19.94486163 60.875 25.875 C64.40702195 29.16881582 66.84065883 32.19161185 67.125 37.203125 C66.89513057 41.54191042 66.36296787 43.55327032 63.5625 47 C60.11251058 49.69267467 57.79352592 50.5 53.3515625 50.5 C49.36247134 49.65182115 46.58520942 47.08679598 43.4921875 44.53125 C40.36345727 42.60889538 38.61951778 42.55640851 35 43 C9.87051973 52.82806382 -1.86737757 90.05406664 -12.5 112.625 C-22.48228492 133.74114246 -22.48228492 133.74114246 -31 138 C-35.89633308 138.53718762 -39.8677559 138.52418708 -44.375 136.4375 C-49.52596514 131.65446094 -51.72068439 126.37161407 -52.16796875 119.37109375 C-52.23590189 109.1675364 -51.13117858 99.13010816 -50 89 C-50.85980469 89.50789062 -51.71960938 90.01578125 -52.60546875 90.5390625 C-70.35507802 100.92148264 -88.86544662 110.21235689 -109.9765625 105.30859375 C-112.20402742 104.39387878 -114.03083283 103.37928449 -116 102 C-116.60585938 101.61070312 -117.21171875 101.22140625 -117.8359375 100.8203125 C-123.63408292 96.54133182 -126.67410095 90.24743347 -130 84 C-130.59425781 84.79921875 -131.18851563 85.5984375 -131.80078125 86.421875 C-136.22713009 92.31373473 -140.765332 98.07481366 -145.6875 103.5625 C-146.96173828 104.98755859 -146.96173828 104.98755859 -148.26171875 106.44140625 C-154.49688545 112.26741793 -160.6904223 114.37785495 -169.14453125 114.27734375 C-174.94221262 113.71423106 -179.12906605 111.28844591 -182.9375 106.9375 C-187.41494549 100.56053218 -186.87541996 92.50026472 -186 85 C-180.91533739 61.36350057 -162.17327568 31.75243624 -142 18 C-135.81410477 14.29545257 -130.17323164 13.1064922 -123 14 C-121.31624835 14.62225605 -119.64232772 15.27544365 -118 16 C-115.20021183 15.72905276 -113.72468517 14.8271279 -111.3125 13.3125 C-107.31848282 11.72996489 -105.12980121 11.95219241 -101.05859375 13.078125 C-97.61182212 14.62165081 -96.47439701 16.60247646 -95 20 C-94.20621842 26.75150486 -96.67798946 31.86089308 -99.25 37.9375 C-105.03983347 52.24412308 -109.98524426 66.31478186 -108 82 C-106.68758285 84.90979338 -105.71513963 86.50961854 -103.0859375 88.3125 C-95.0369026 90.96536543 -86.11350845 86.57175855 -79.00390625 83.04980469 C-68.55852906 77.57768944 -58.67900179 71.04621143 -49.23828125 63.99707031 C-45.19651786 61 -45.19651786 61 -43 61 C-42.89558594 60.04609375 -42.79117188 59.0921875 -42.68359375 58.109375 C-39.91042303 38.94229557 -29.81377291 15.50113147 -15.1875 2.5 C-10.40632779 -0.77851809 -5.67695543 -0.74653605 0 0 Z M-133 44 C-142.90548348 56.39267872 -142.90548348 56.39267872 -151 70 C-150.67 70.66 -150.34 71.32 -150 72 C-145.05109828 65.61205593 -140.2993748 59.13816196 -135.875 52.375 C-135.47289307 51.77155762 -135.07078613 51.16811523 -134.65649414 50.54638672 C-133.70599344 49.07082547 -132.84374785 47.53909784 -132 46 C-132.33 45.34 -132.66 44.68 -133 44 Z M-152 72 C-151 74 -151 74 -151 74 Z " fill="#AF520C" transform="translate(862,473)"/>
<path d="M0 0 C5.78875956 4.90786137 5.78875956 4.90786137 6.21630859 9.14233398 C6.38298347 16.92120695 4.8134714 23.63298698 2.625 31.0625 C1.98910474 33.28167105 1.3562448 35.50171431 0.7265625 37.72265625 C0.44377441 38.68953369 0.16098633 39.65641113 -0.13037109 40.65258789 C-1.27704389 45.06640898 -2.14217288 49.52233975 -3 54 C17.78323429 54.11554142 38.52916854 53.90821227 59.30224609 53.25537109 C62.79997313 53.14551722 66.29789519 53.04476592 69.79595947 52.94632339 C84.90934271 52.51706582 100.00122569 51.9024363 115.09375 50.9921875 C115.79254776 50.95053593 116.49134552 50.90888435 117.21131897 50.86597061 C121.47679961 50.60876846 125.73860734 50.3174637 130 50 C130.87156738 49.94450989 131.74313477 49.88901978 132.64111328 49.83184814 C135.00581126 49.67182803 135.00581126 49.67182803 138 49 C139.7758544 45.68994963 139.7758544 45.68994963 141 42 C144.42916323 38.1674058 147.6935742 37.23622642 152.66796875 36.90625 C159.06693948 37.16349505 163.90988547 40.12194863 168.5234375 44.3984375 C171.70289576 47.84705625 172.86122421 50.88979371 173.4375 55.5 C172.9003512 59.79719042 171.8694861 61.76263107 169 65 C160.8889341 69.52347906 151.55802769 69.20254216 142.5 69.5 C141.28812012 69.54278076 140.07624023 69.58556152 138.82763672 69.62963867 C131.29416016 69.8789115 123.76343873 70.0441458 116.2265625 70.14453125 C89.63550193 70.52204761 63.11785522 71.62490658 36.5625 73 C34.80023197 73.0906277 33.0379639 73.18125474 31.2756958 73.2718811 C27.06159991 73.48936476 22.84772915 73.71080057 18.63401985 73.93564796 C17.06786809 74.01911858 15.50167994 74.10190977 13.93545341 74.18396568 C10.44946764 74.36751702 6.9666535 74.56491068 3.48318481 74.79345703 C1.38197463 74.91805283 -0.72325451 74.99987513 -2.82815552 74.99951172 C-5.88145108 75.07546064 -8.25468768 75.26872815 -10.50009155 77.47183228 C-13.99445113 82.65527309 -16.06685104 88.74282062 -18.19140625 94.5859375 C-18.76418053 96.13950455 -18.76418053 96.13950455 -19.348526 97.72445679 C-24.26227866 111.23021669 -28.61408146 124.9219169 -32.9375 138.625 C-33.37914964 140.02104668 -33.82083086 141.41708336 -34.26254272 142.81311035 C-69.6349047 244.92313602 -69.6349047 244.92313602 -66.75 348.1875 C-65.09665417 350.28125105 -65.09665417 350.28125105 -62.25390625 350.33203125 C-56.17900269 349.71214313 -51.77652154 345.56688297 -47 342 C-46.23429687 341.43410156 -45.46859375 340.86820313 -44.6796875 340.28515625 C-10.90246966 312.80221701 11.36134762 260.17544942 30.92871094 221.76489258 C31.66976074 220.31699341 31.66976074 220.31699341 32.42578125 218.83984375 C33.06640503 217.57708618 33.06640503 217.57708618 33.7199707 216.28881836 C34.99567454 214.00773435 36.29225206 211.97998523 38 210 C38.66 210 39.32 210 40 210 C40.25652344 209.29101562 40.51304687 208.58203125 40.77734375 207.8515625 C44.89088741 198.25767473 52.1838354 189.79994093 59 182 C59.70898438 181.18273437 60.41796875 180.36546875 61.1484375 179.5234375 C67.05712624 173.14546663 74.01940536 167.92200834 82.8125 166.56640625 C87.39928882 166.45037141 90.79016056 167.14271789 95 169 C97.79978817 168.72905276 99.27531483 167.8271279 101.6875 166.3125 C105.68151718 164.72996489 107.87019879 164.95219241 111.94140625 166.078125 C115.38817788 167.62165081 116.52560299 169.60247646 118 173 C118.79378158 179.75150486 116.32201054 184.86089308 113.75 190.9375 C107.96016653 205.24412308 103.01475574 219.31478186 105 235 C106.31241715 237.90979338 107.28486037 239.50961854 109.9140625 241.3125 C117.97262538 243.96850574 126.90200734 239.56272778 134.01806641 236.03662109 C142.75537141 231.46670276 151.06060331 226.09300678 159.125 220.43359375 C159.97102783 219.8413501 160.81705566 219.24910645 161.6887207 218.63891602 C163.31646653 217.48987218 164.93535958 216.32815044 166.54370117 215.15209961 C170.99436723 211.99127165 174.34721338 210.03493688 180 210 C185.46835443 212.93670886 185.46835443 212.93670886 187 216 C187.69921154 222.99211542 187.69921154 222.99211542 184.96484375 226.93359375 C181.83438045 230.44347362 178.15919507 232.84445283 174.1875 235.3125 C173.07133301 236.01862427 173.07133301 236.01862427 171.93261719 236.73901367 C151.299396 249.66855543 131.15801309 261.55354423 106 259 C102.50744748 258.1887378 99.92562351 257.04922527 97 255 C96.09121094 254.41605469 96.09121094 254.41605469 95.1640625 253.8203125 C89.36591708 249.54133182 86.32589905 243.24743347 83 237 C82.10861328 238.19882812 82.10861328 238.19882812 81.19921875 239.421875 C76.77286991 245.31373473 72.234668 251.07481366 67.3125 256.5625 C66.46300781 257.51253906 65.61351562 258.46257812 64.73828125 259.44140625 C58.49724197 265.27290515 52.31676258 267.34895207 43.86328125 267.29296875 C38.39713899 266.73367725 34.47440396 263.98293597 30 261 C29.73082764 261.8772876 29.46165527 262.7545752 29.18432617 263.65844727 C28.05475018 266.84552347 26.72922483 269.53682027 25.05078125 272.46484375 C24.45765137 273.50060547 23.86452148 274.53636719 23.25341797 275.60351562 C22.29266357 277.25383789 22.29266357 277.25383789 21.3125 278.9375 C20.98219788 279.50702393 20.65189575 280.07654785 20.31158447 280.66333008 C-26.56234112 361.35583336 -26.56234112 361.35583336 -59.1328125 371.67578125 C-66.95934587 373.03478181 -74.15877976 372.15838877 -81 368 C-92.07755262 358.45038568 -95.92343408 344.17681588 -97 330 C-97.19538068 324.70802885 -97.24572259 319.41985572 -97.25 314.125 C-97.25067474 313.37257019 -97.25134949 312.62014038 -97.25204468 311.84490967 C-97.21850629 288.13671514 -93.43080143 265.24001368 -89 242 C-89.85980469 242.50789062 -90.71960937 243.01578125 -91.60546875 243.5390625 C-109.35507802 253.92148264 -127.86544662 263.21235689 -148.9765625 258.30859375 C-151.20402742 257.39387878 -153.03083283 256.37928449 -155 255 C-155.60585937 254.61070312 -156.21171875 254.22140625 -156.8359375 253.8203125 C-162.63408292 249.54133182 -165.67410095 243.24743347 -169 237 C-169.59425781 237.79921875 -170.18851563 238.5984375 -170.80078125 239.421875 C-175.22713009 245.31373473 -179.765332 251.07481366 -184.6875 256.5625 C-185.53699219 257.51253906 -186.38648438 258.46257812 -187.26171875 259.44140625 C-193.49688545 265.26741793 -199.6904223 267.37785495 -208.14453125 267.27734375 C-213.80281955 266.72776992 -218.04320149 264.34232804 -221.875 260.1875 C-224.21820163 256.67269756 -225.10158432 254.08370765 -226 250 C-226.72703125 250.59748047 -226.72703125 250.59748047 -227.46875 251.20703125 C-235.92773912 257.89288611 -243.1112271 260.23800002 -254 259 C-261.46070807 257.19394963 -266.67629881 253.39066598 -272 248 C-272.58394531 247.44957031 -273.16789062 246.89914062 -273.76953125 246.33203125 C-281.11073813 238.82510863 -285.03882483 228.53196258 -289.1796875 219.03125 C-289.53683838 218.21317871 -289.89398926 217.39510742 -290.26196289 216.55224609 C-290.9508761 214.96052516 -291.63011689 213.36457531 -292.29858398 211.76416016 C-294.2460591 207.18580919 -294.2460591 207.18580919 -298 204 C-302.79210252 209.94021042 -306.49959556 216.16713213 -310 222.9375 C-310.55324951 223.99783447 -311.10649902 225.05816895 -311.67651367 226.15063477 C-314.93902972 232.54256828 -317.91691075 238.99993579 -320.67578125 245.625 C-320.98063446 246.35626602 -321.28548767 247.08753204 -321.59957886 247.84095764 C-323.08937783 251.43396289 -324.55114027 255.03580864 -325.97851562 258.65405273 C-333.64113682 277.73866964 -333.64113682 277.73866964 -342.5 282.125 C-347.79863219 283.44965805 -351.90927985 283.73790123 -357.1875 281.875 C-362.04920403 278.63386398 -364.41459423 275.67258792 -366.3125 270.25 C-368.13902054 261.04781557 -366.56791999 252.13058647 -365 243 C-365.62342285 243.34256836 -366.2468457 243.68513672 -366.88916016 244.03808594 C-384.96540978 253.90391446 -402.75042174 263.27987474 -423.96484375 258.3046875 C-426.20175712 257.39462702 -428.02537588 256.38310676 -430 255 C-430.60585938 254.61070312 -431.21171875 254.22140625 -431.8359375 253.8203125 C-437.63408292 249.54133182 -440.67410095 243.24743347 -444 237 C-444.89138672 238.19882812 -444.89138672 238.19882812 -445.80078125 239.421875 C-450.22713009 245.31373473 -454.765332 251.07481366 -459.6875 256.5625 C-460.53699219 257.51253906 -461.38648438 258.46257812 -462.26171875 259.44140625 C-468.49688545 265.26741793 -474.6904223 267.37785495 -483.14453125 267.27734375 C-488.94221262 266.71423106 -493.12906605 264.28844591 -496.9375 259.9375 C-501.41494549 253.56053218 -500.87541996 245.50026472 -500 238 C-494.91533739 214.36350057 -476.17327568 184.75243624 -456 171 C-449.81410477 167.29545257 -444.17323164 166.1064922 -437 167 C-435.31624835 167.62225605 -433.64232772 168.27544365 -432 169 C-429.20021183 168.72905276 -427.72468517 167.8271279 -425.3125 166.3125 C-421.31848282 164.72996489 -419.12980121 164.95219241 -415.05859375 166.078125 C-411.61182212 167.62165081 -410.47439701 169.60247646 -409 173 C-408.20621842 179.75150486 -410.67798946 184.86089308 -413.25 190.9375 C-419.03983347 205.24412308 -423.98524426 219.31478186 -422 235 C-420.68758285 237.90979338 -419.71513963 239.50961854 -417.0859375 241.3125 C-409.0369026 243.96536543 -400.11350845 239.57175855 -393.00390625 236.04980469 C-386.83793207 232.81957942 -380.98734778 229.11568158 -375.15576172 225.32470703 C-373.18537543 224.11391247 -371.21904998 223.10465892 -369.12890625 222.12109375 C-356.55987858 215.65977774 -353.96060695 202.11453698 -349.88453674 189.57757568 C-345.56028107 176.407699 -339.77259204 162.50359742 -328.9375 153.4375 C-325.52197035 151.7660706 -323.7506277 151.37489538 -320 152 C-315.33132919 154.24096199 -312.7031538 156.95154227 -310.69897461 161.64892578 C-308.38367279 169.43668567 -312.0828932 178.2696515 -314.5625 185.625 C-314.89185547 186.62917969 -315.22121094 187.63335937 -315.56054688 188.66796875 C-316.36461996 191.1151477 -317.1778487 193.55884799 -318 196 C-316.85144531 194.84371094 -316.85144531 194.84371094 -315.6796875 193.6640625 C-309.79373528 187.8124307 -304.65836171 183.5345661 -296.1875 182.5625 C-289.49928115 182.87357995 -283.24008311 185.48120742 -278.3125 190 C-270.1327159 199.14769359 -265.75451646 210.75368451 -261.08300781 221.92724609 C-256.65691309 233.32539279 -256.65691309 233.32539279 -248.1875 241.4375 C-238.00076579 240.03932079 -231.89996286 230.57637892 -226 223 C-224.40380277 220.95209671 -222.80003846 218.91006098 -221.1875 216.875 C-220.50042969 215.98554687 -219.81335937 215.09609375 -219.10546875 214.1796875 C-217 212 -217 212 -214.36328125 211.0078125 C-211.79858494 210.22129674 -211.79858494 210.22129674 -210.91015625 207.7265625 C-210.60980469 206.82679688 -210.30945312 205.92703125 -210 205 C-205.08382574 196.77100807 -199.30001098 189.20929092 -193 182 C-192.29101562 181.18273437 -191.58203125 180.36546875 -190.8515625 179.5234375 C-184.94287376 173.14546663 -177.98059464 167.92200834 -169.1875 166.56640625 C-164.60071118 166.45037141 -161.20983944 167.14271789 -157 169 C-154.20021183 168.72905276 -152.72468517 167.8271279 -150.3125 166.3125 C-146.31848282 164.72996489 -144.12980121 164.95219241 -140.05859375 166.078125 C-136.61182212 167.62165081 -135.47439701 169.60247646 -134 173 C-133.20621842 179.75150486 -135.67798946 184.86089308 -138.25 190.9375 C-144.03983347 205.24412308 -148.98524426 219.31478186 -147 235 C-145.68758285 237.90979338 -144.71513963 239.50961854 -142.0859375 241.3125 C-134.03367175 243.96643028 -125.10707957 239.56855007 -117.99511719 236.04541016 C-112.66720743 233.25366889 -107.57297329 230.11717004 -102.54296875 226.82421875 C-99.63354684 224.93499182 -96.82671456 223.44364028 -93.61328125 222.14453125 C-87.37882738 219.34183403 -83.30615069 216.147716 -80.63134766 209.70166016 C-77.91460079 201.46875052 -76.34168076 192.8870989 -74.68225098 184.39280701 C-72.68865 174.206802 -70.27347289 164.12715221 -67.840271 154.03857422 C-67.06332395 150.8159176 -66.29350178 147.59161119 -65.52392578 144.3671875 C-62.50866407 131.80427836 -59.29099815 119.3268449 -55.625 106.9375 C-55.4318924 106.28214264 -55.23878479 105.62678528 -55.03982544 104.9515686 C-52.04129839 94.84257626 -48.5708588 84.91728322 -45 75 C-83.1113861 75.61936982 -121.1352458 76.30304848 -159 81 C-160.75648618 81.21244009 -162.5129949 81.42469392 -164.26953125 81.63671875 C-167.84871735 82.07359714 -171.42522713 82.52817439 -175 83 C-175.29648438 83.95261719 -175.59296875 84.90523438 -175.8984375 85.88671875 C-177.14283133 89.40367577 -177.70063329 90.35031664 -181 92 C-185.53001273 93.0229061 -187.8651976 93.39281621 -192.25 91.875 C-195.92238961 89.37109799 -198.37839825 87.30333253 -199.5703125 82.88671875 C-200.3828797 77.74334129 -200.06955337 74.39969317 -197 70 C-187.45035991 60.45035991 -171.102404 60.73850406 -158.5 60 C-157.15746806 59.91801205 -155.81493886 59.83597916 -154.47241211 59.75390625 C-144.07547242 59.13105744 -133.67274946 58.61210835 -123.26858521 58.12664795 C-121.46210462 58.04210255 -119.65568696 57.95620207 -117.84933472 57.86895752 C-107.1651402 57.35592661 -96.48892794 56.96562474 -85.79359436 56.77996826 C-80.64823358 56.68859787 -75.50363381 56.56955819 -70.3588562 56.45019531 C-67.83820655 56.40026822 -65.31723038 56.36466774 -62.7961731 56.34375 C-59.25961252 56.31370779 -55.7269476 56.23583126 -52.19140625 56.1484375 C-50.60223389 56.1542836 -50.60223389 56.1542836 -48.98095703 56.1602478 C-43.59377095 56.07943199 -43.59377095 56.07943199 -39.25062561 53.26792908 C-36.56843539 49.08877947 -34.90637875 44.5036321 -33.3125 39.8125 C-20.95218454 5.31598322 -20.95218454 5.31598322 -9.48828125 -0.2109375 C-5.92809661 -1.33991285 -3.59100922 -0.96187747 0 0 Z M-16.94140625 11.8125 C-23.24514749 22.27350307 -27.45655728 33.60436886 -31.75390625 44.99902344 C-32.38670118 46.67050603 -33.03637857 48.33557086 -33.6875 50 C-34.18830078 51.3303125 -34.18830078 51.3303125 -34.69921875 52.6875 C-36.42807598 55.76102396 -38.00907715 57.09502739 -41 59 C-44.02206462 59.38196891 -46.68431488 59.53459795 -49.703125 59.50390625 C-50.58459702 59.5121492 -51.46606903 59.52039215 -52.37425232 59.52888489 C-54.30839686 59.54617628 -56.24262844 59.55520031 -58.17684937 59.55706787 C-63.54687499 59.56655998 -68.91579135 59.65038099 -74.28515625 59.73046875 C-75.44429031 59.74676331 -76.60342438 59.76305786 -77.79768372 59.77984619 C-92.07374303 60.00677977 -106.33074107 60.62682544 -120.592453 61.28046799 C-122.65049867 61.37333044 -124.70867799 61.46207694 -126.76696777 61.54934692 C-141.17115529 62.16306166 -155.54094285 62.99393344 -169.89453125 64.3515625 C-171.0815715 64.45471771 -172.26861176 64.55787292 -173.49162292 64.66415405 C-181.46308559 65.47882424 -187.85075155 67.26756809 -194.5625 71.6875 C-196.82513343 75.32738856 -196.75634307 78.84011313 -196 83 C-194.20606332 85.87029869 -193.01736724 87.49131638 -190 89 C-185.83700018 89.03949715 -182.11203396 89.04253184 -179 86.125 C-177.89936401 83.89445494 -177.89936401 83.89445494 -177 81 C-171.49541399 78.95112164 -165.75461355 78.24527813 -159.953125 77.4765625 C-158.98932922 77.34786774 -158.02553345 77.21917297 -157.03253174 77.08657837 C-146.63036909 75.75002007 -136.21637337 74.988571 -125.75 74.375 C-124.23238571 74.28211197 -124.23238571 74.28211197 -122.68411255 74.18734741 C-95.48308747 72.54453381 -68.24342208 72.25867873 -41 72 C-42.1123149 75.68298072 -43.2277618 79.36500583 -44.34375 83.046875 C-44.65666992 84.08312012 -44.96958984 85.11936523 -45.29199219 86.18701172 C-46.92868013 91.58122671 -48.62009652 96.93568163 -50.5 102.25 C-60.18368517 130.88830827 -65.86049245 161.19131498 -72.60205078 190.62890625 C-72.78622559 191.43199219 -72.97040039 192.23507812 -73.16015625 193.0625 C-73.33297119 193.81635986 -73.50578613 194.57021973 -73.68383789 195.34692383 C-74.16576983 197.40710696 -74.67441328 199.45911441 -75.1875 201.51171875 C-76.04225229 204.86914864 -76.04225229 204.86914864 -76.3125 207.83203125 C-77.16021005 213.43928001 -79.79903236 216.00482676 -84.16625977 219.29931641 C-88.01952172 222.0160173 -91.99061385 224.52147038 -96 227 C-96.90476074 227.56750977 -97.80952148 228.13501953 -98.74169922 228.71972656 C-128.64110568 247.36733697 -128.64110568 247.36733697 -143 245 C-147.49294791 242.61598682 -149.02087236 239.58872531 -151 235 C-153.41024576 218.55007269 -146.84636333 202.09123843 -140.59179688 187.20458984 C-138.41645362 181.86539562 -137.40926726 177.77890724 -138 172 C-139.96276905 169.72191394 -139.96276905 169.72191394 -143 169 C-147.6054095 169 -149.43901415 169.51062937 -152.9375 172.5625 C-153.618125 173.366875 -154.29875 174.17125 -155 175 C-156.2065625 174.0409375 -156.2065625 174.0409375 -157.4375 173.0625 C-161.44302302 170.4391645 -165.23955714 169.69950693 -170 170 C-177.8838749 171.85340217 -183.43124954 177.43124954 -189 183 C-189.67933594 183.67933594 -190.35867188 184.35867188 -191.05859375 185.05859375 C-195.33956636 189.61520243 -198.89488362 194.57370298 -202.375 199.75 C-202.80425781 200.38824707 -203.23351563 201.02649414 -203.67578125 201.68408203 C-205.45734796 204.3984099 -206.91088164 206.74191324 -207.9765625 209.828125 C-209 212 -209 212 -211.38671875 213.0625 C-212.24910156 213.371875 -213.11148437 213.68125 -214 214 C-216.0202099 215.79831431 -216.0202099 215.79831431 -217.8125 218 C-218.49570313 218.80050781 -219.17890625 219.60101562 -219.8828125 220.42578125 C-225.72342244 227.51589887 -225.72342244 227.51589887 -231.33203125 234.7890625 C-234.87033384 239.4042398 -239.32542044 243.22033829 -245.1171875 244.44921875 C-248.48442276 244.6334637 -250.66357988 244.21465808 -253.50390625 242.40234375 C-256.43185503 239.58436488 -258.05391663 236.6276093 -259.75 233 C-260.08435059 232.31156006 -260.41870117 231.62312012 -260.76318359 230.91381836 C-262.68583288 226.91444142 -264.50994434 222.87457865 -266.3046875 218.81640625 C-266.69172852 217.94306641 -267.07876953 217.06972656 -267.47753906 216.16992188 C-268.22065274 214.48131463 -268.95497027 212.7887977 -269.67871094 211.09179688 C-273.90077797 201.41999746 -279.08476524 193.11176121 -288.3125 187.625 C-294.09793499 186.27955 -299.15715136 186.25036665 -304.6875 188.5 C-313.48791905 194.49002882 -318.02907241 203.93550171 -322.93896484 213.05126953 C-324.57822211 216.06198088 -326.28886228 219.02965033 -328 222 C-327.66779214 215.6880506 -326.2421697 210.33477056 -324.15625 204.375 C-321.85174985 197.73646832 -319.94889071 190.99902419 -318.0559082 184.23339844 C-317.05532664 180.66572616 -316.04657793 177.13626018 -314.84765625 173.62890625 C-313.66952746 169.97507826 -313.36681745 166.7915574 -314 163 C-316.24162425 158.74333301 -316.24162425 158.74333301 -320 156 C-323.28634073 155.24713862 -323.28634073 155.24713862 -327 156 C-332.17521945 160.50634331 -335.75830555 166.39956038 -338.875 172.4375 C-339.29136719 173.23591309 -339.70773437 174.03432617 -340.13671875 174.85693359 C-346.10665778 186.71790386 -351.67305453 199.98654886 -353.9375 213.1171875 C-354.38061523 215.29370117 -354.38061523 215.29370117 -355 217 C-357.34765625 218.35546875 -357.34765625 218.35546875 -360 219 C-361.51099194 220.06019876 -362.98735747 221.17048219 -364.4375 222.3125 C-378.67647691 232.86132143 -396.99819299 246.31818756 -415.46484375 245.41796875 C-419.02715282 244.83065431 -420.7204785 243.79425216 -423 241 C-428.46086737 231.62126219 -426.612223 220.94340013 -424 210.875 C-421.79378559 202.76585128 -418.84535922 194.9484742 -415.59179688 187.20458984 C-413.41645362 181.86539562 -412.40926726 177.77890724 -413 172 C-414.96276905 169.72191394 -414.96276905 169.72191394 -418 169 C-422.6054095 169 -424.43901415 169.51062937 -427.9375 172.5625 C-428.618125 173.366875 -429.29875 174.17125 -430 175 C-430.804375 174.360625 -431.60875 173.72125 -432.4375 173.0625 C-436.44302302 170.4391645 -440.23955714 169.69950693 -445 170 C-452.8838749 171.85340217 -458.43124954 177.43124954 -464 183 C-464.67933594 183.67933594 -465.35867188 184.35867188 -466.05859375 185.05859375 C-475.11025383 194.69305689 -481.72731279 206.13137823 -487.875 217.75 C-488.55332886 219.02568848 -488.55332886 219.02568848 -489.24536133 220.32714844 C-494.9268687 231.31513921 -499.41175622 241.93770583 -496.41015625 254.4609375 C-494.75654209 258.56068136 -492.69544258 260.53068583 -488.75 262.5 C-482.92223951 264.63652758 -477.90232649 265.06693152 -472.0625 262.5625 C-463.05417845 257.43227827 -457.13898144 248.79069467 -451 240.6875 C-450.32831787 239.80320312 -449.65663574 238.91890625 -448.96459961 238.0078125 C-448.33690674 237.16347656 -447.70921387 236.31914063 -447.0625 235.44921875 C-446.49660156 234.68955811 -445.93070313 233.92989746 -445.34765625 233.1472168 C-444.03370807 231.05370697 -443.43300339 229.41611778 -443 227 C-442.34 227 -441.68 227 -441 227 C-440.9175 228.134375 -440.835 229.26875 -440.75 230.4375 C-439.70618992 238.53060278 -435.99422444 245.47900381 -430 251 C-425.6371991 254.30728455 -421.45249087 255.6303396 -416 256 C-415.29488281 256.06316406 -414.58976563 256.12632812 -413.86328125 256.19140625 C-394.7508221 257.17072234 -375.6827029 245.73517086 -360 236 C-360.309375 237.11375 -360.61875 238.2275 -360.9375 239.375 C-363.71864152 250.65736133 -365.73150409 265.52518218 -360 276 C-356.95746144 278.95034042 -354.1554224 279.23469754 -350.0625 279.4375 C-345.28133761 279.26725089 -342.61920456 278.28253437 -339 275 C-334.33564217 269.22176567 -331.75494455 263.10808623 -329 256.25 C-324.99801664 246.5559223 -320.78161808 237.01830074 -316.25 227.5625 C-315.73179687 226.46905273 -315.21359375 225.37560547 -314.6796875 224.24902344 C-305.82064611 205.92947021 -305.82064611 205.92947021 -300 201 C-297.5625 200.5 -297.5625 200.5 -295 201 C-292.0023779 204.27086477 -290.14423507 207.49218684 -288.44921875 211.5703125 C-287.99740234 212.6325 -287.54558594 213.6946875 -287.08007812 214.7890625 C-286.1617635 216.98889612 -285.24505976 219.18940299 -284.33007812 221.390625 C-278.32806733 235.48304072 -270.71613184 248.91056613 -256 255 C-249.16852993 257.27715669 -243.37064835 255.94908463 -236.828125 253.41796875 C-231.64314438 250.81831686 -227.09712981 247.09712981 -223 243 C-222.83564453 244.21236328 -222.83564453 244.21236328 -222.66796875 245.44921875 C-222.43013672 247.05216797 -222.43013672 247.05216797 -222.1875 248.6875 C-222.03667969 249.74324219 -221.88585938 250.79898438 -221.73046875 251.88671875 C-220.76692733 255.9933632 -219.55853427 258.9271628 -216.01953125 261.36328125 C-210.13252864 263.89521335 -205.41056303 265.3266833 -199.0390625 263.41015625 C-188.87655317 259.05192597 -182.44986817 249.20105195 -176 240.6875 C-174.99247681 239.36105469 -174.99247681 239.36105469 -173.96459961 238.0078125 C-173.0230603 236.74130859 -173.0230603 236.74130859 -172.0625 235.44921875 C-171.49660156 234.68955811 -170.93070313 233.92989746 -170.34765625 233.1472168 C-169.03370807 231.05370697 -168.43300339 229.41611778 -168 227 C-167.34 227 -166.68 227 -166 227 C-165.9175 228.134375 -165.835 229.26875 -165.75 230.4375 C-164.70618992 238.53060278 -160.99422444 245.47900381 -155 251 C-150.6371991 254.30728455 -146.45249087 255.6303396 -141 256 C-139.94232422 256.09474609 -139.94232422 256.09474609 -138.86328125 256.19140625 C-119.29211852 257.19422616 -99.7731283 245.39270752 -84 235 C-84.13051758 235.68175293 -84.26103516 236.36350586 -84.39550781 237.06591797 C-86.85524809 249.97416973 -89.22472791 262.89067052 -91.25 275.875 C-91.41274414 276.89964355 -91.57548828 277.92428711 -91.74316406 278.97998047 C-93.49591566 290.45845671 -94.19656233 301.89387231 -94.1875 313.5 C-94.18669434 314.58788818 -94.18588867 315.67577637 -94.18505859 316.79663086 C-94.12707467 324.39195682 -93.66682177 331.56875293 -92 339 C-91.855625 339.72445313 -91.71125 340.44890625 -91.5625 341.1953125 C-89.52262875 350.48401195 -86.21060572 358.60250514 -79 365 C-73.05492478 368.73024328 -66.81571696 368.86973566 -60 368 C-51.27528644 365.61752449 -44.6185374 361.02681386 -38 355 C-37.26265625 354.33226562 -36.5253125 353.66453125 -35.765625 352.9765625 C-29.08292008 346.60192554 -23.54267804 339.35636653 -18 332 C-17.53803223 331.38817871 -17.07606445 330.77635742 -16.60009766 330.14599609 C-1.76553912 310.41338143 10.87965354 289.47046584 22.99169922 267.97802734 C25.50790419 263.52841807 28.0948888 259.2069299 31 255 C31.309375 255.7425 31.61875 256.485 31.9375 257.25 C35.22989802 261.63986403 39.74643467 263.39681092 45.0859375 264.38671875 C51.50789565 264.75477564 56.10237695 262.29633763 60.9765625 258.43359375 C66.69998905 253.12817026 71.30066567 246.89042166 76 240.6875 C77.00752319 239.36105469 77.00752319 239.36105469 78.03540039 238.0078125 C78.66309326 237.16347656 79.29078613 236.31914063 79.9375 235.44921875 C80.78634766 234.30972778 80.78634766 234.30972778 81.65234375 233.1472168 C82.96629193 231.05370697 83.56699661 229.41611778 84 227 C84.66 227 85.32 227 86 227 C86.12375 228.7015625 86.12375 228.7015625 86.25 230.4375 C87.29381008 238.53060278 91.00577556 245.47900381 97 251 C101.3628009 254.30728455 105.54750913 255.6303396 111 256 C111.70511719 256.06316406 112.41023438 256.12632812 113.13671875 256.19140625 C137.5955489 257.44466862 165.27539124 239.29861482 183 224 C183.33 223.67 183.66 223.34 184 223 C183.82432642 219.51944126 183.82432642 219.51944126 183 216 C179.44617333 213.63078222 178.18983579 213.45217643 174 214 C171.60396794 215.50269665 169.55190525 216.97945438 167.375 218.75 C161.37679109 223.38584692 155.19883368 227.49284453 148.6875 231.375 C147.87651855 231.86194336 147.06553711 232.34888672 146.22998047 232.85058594 C122.71406511 246.75872017 122.71406511 246.75872017 109 245 C104.50705209 242.61598682 102.97912764 239.58872531 101 235 C98.58975424 218.55007269 105.15363667 202.09123843 111.40820312 187.20458984 C113.58354638 181.86539562 114.59073274 177.77890724 114 172 C112.03723095 169.72191394 112.03723095 169.72191394 109 169 C104.3945905 169 102.56098585 169.51062937 99.0625 172.5625 C98.381875 173.366875 97.70125 174.17125 97 175 C96.195625 174.360625 95.39125 173.72125 94.5625 173.0625 C90.55697698 170.4391645 86.76044286 169.69950693 82 170 C74.1161251 171.85340217 68.56875046 177.43124954 63 183 C62.32066406 183.67933594 61.64132812 184.35867188 60.94140625 185.05859375 C56.66043364 189.61520243 53.10511638 194.57370298 49.625 199.75 C49.19574219 200.38824707 48.76648437 201.02649414 48.32421875 201.68408203 C46.53952683 204.40317136 45.06203243 206.83721986 43.8984375 209.890625 C43.45371094 210.93476562 43.45371094 210.93476562 43 212 C42.01 212.33 41.02 212.66 40 213 C36.67408606 217.65627951 34.14988851 222.62817773 31.625 227.75 C21.06379273 249.1330895 9.42806337 269.75289899 -3.14355469 290.00683594 C-4.75496841 292.60493329 -6.35361797 295.21011294 -7.9453125 297.8203125 C-15.76943224 310.59465835 -24.39424603 322.50673407 -34 334 C-34.64066406 334.8353125 -35.28132813 335.670625 -35.94140625 336.53125 C-42.58855443 344.50278254 -53.26164361 353.34790099 -63.875 354.375 C-68.33046679 352.41459461 -70.23627834 349.47489711 -72 345 C-77.33745623 318.31271884 -71.36086136 287.53163303 -66.55908203 261.12402344 C-65.95071063 257.72458217 -65.37693155 254.32041964 -64.80859375 250.9140625 C-61.51320144 231.23284946 -58.13872699 211.48456098 -52.64697266 192.27539062 C-51.85924965 189.50498368 -51.09285852 186.72888652 -50.32421875 183.953125 C-45.94999725 168.27967705 -41.13390117 152.77345951 -36.05903625 137.31483459 C-34.58997232 132.83143657 -33.14899157 128.33976963 -31.72360229 123.84230042 C-30.6801888 120.5510353 -29.63011888 117.26190869 -28.57971191 113.97286987 C-28.07855156 112.39836119 -27.58013821 110.82297477 -27.08483887 109.24661255 C-24.52807551 101.11737402 -21.79473779 93.12001143 -18.44921875 85.27734375 C-18.17978958 84.63213272 -17.91036041 83.98692169 -17.63276672 83.32215881 C-15.74722707 79.0471874 -13.55029322 75.09079125 -10 72 C-6.81056213 71.14007568 -6.81056213 71.14007568 -3.14282227 70.98339844 C-2.46601819 70.94668093 -1.78921412 70.90996342 -1.09190083 70.87213326 C1.16623292 70.7568607 3.42374762 70.68300258 5.68359375 70.609375 C7.30274991 70.53602864 8.92179949 70.46029612 10.54074097 70.38235474 C14.92522332 70.17902845 19.31041799 70.01254123 23.69668961 69.8531723 C27.35780674 69.7153569 31.01781683 69.55542873 34.67801571 69.39530754 C64.04930832 68.11366761 93.44242057 67.28240885 122.83620834 66.72912025 C125.99957762 66.66885277 129.16281191 66.60268845 132.32605362 66.53609848 C134.46038793 66.49397166 136.59471119 66.46143461 138.72921753 66.42947388 C154.97580168 66.77791415 154.97580168 66.77791415 169 60 C169.708024 55.19555144 169.5363708 51.88836414 167 47.6875 C162.61220219 43.26272637 157.53997615 40.82088872 151.3125 40.4375 C147.842756 40.61128683 146.98482843 41.01074653 144 43.125 C141.84700902 46.21992454 141.26008662 48.27209179 141 52 C135.62845051 53.7905165 129.87622206 53.62239169 124.25 53.9375 C123.51736938 53.97946503 122.78473877 54.02143005 122.02990723 54.06466675 C90.57987349 55.83691439 59.03997206 56.55013711 27.55078125 57.3125 C26.63112579 57.33493271 25.71147034 57.35736542 24.76394653 57.38047791 C20.63213472 57.48024153 16.50033245 57.57472266 12.36816406 57.65844727 C5.85356091 57.79920523 -0.55491862 57.9832401 -7 59 C-6.00024785 50.95721781 -4.42977345 43.13040899 -2.5625 35.25 C-2.25469604 33.93866089 -2.25469604 33.93866089 -1.94067383 32.60083008 C-0.74241387 27.6386186 0.65646649 22.82786131 2.38500977 18.0234375 C3.48287154 14.41125871 3.50279082 11.77093116 3 8 C0.61273656 4.62974574 -0.84970919 3.27506954 -4.875 2.3125 C-10.72453901 3.59939858 -13.66866552 7.07130619 -16.94140625 11.8125 Z " fill="#FBF7F6" transform="translate(1426,320)"/>
<path d="M0 0 C5.88127093 4.10321228 8.84770481 8.99385104 10.6875 15.875 C11.09580288 19.29158545 11.10800303 22.66742251 11.0859375 26.10546875 C11.0900766 27.10393326 11.0942157 28.10239777 11.09848022 29.13111877 C11.10471944 32.44187866 11.08551787 35.75182133 11.0625 39.0625 C11.05851196 40.21536499 11.05452393 41.36822998 11.05041504 42.55603027 C10.63776325 145.75777302 -2.17027228 248.60358433 -21.3125 349.875 C-21.55071472 351.14079895 -21.78892944 352.4065979 -22.03436279 353.71075439 C-23.43872065 361.16573581 -24.86384117 368.61627175 -26.31799316 376.06170654 C-26.76178621 378.33973033 -27.20153637 380.6185467 -27.63659668 382.89825439 C-38.34797732 438.8004461 -38.34797732 438.8004461 -51.3125 449.875 C-55.7545853 452.59935585 -60.24679156 452.65003741 -65.3125 451.875 C-68.90530817 450.16658305 -70.87459887 447.69368472 -72.75 444.1875 C-74.42868029 434.30193829 -70.74224401 424.38818384 -68.10864258 414.94882202 C-66.83239164 410.36265355 -65.59062558 405.76715557 -64.34765625 401.171875 C-64.09166656 400.22648361 -63.83567688 399.28109222 -63.57192993 398.30705261 C-39.10293377 307.6308809 -23.26404997 214.0505465 -16.5625 120.375 C-16.50324341 119.54742187 -16.44398682 118.71984375 -16.38293457 117.8671875 C-14.84739001 96.05171365 -14.16142141 74.30638275 -14.25 52.4375 C-14.25503555 50.22981875 -14.25959475 48.02213636 -14.26367188 45.81445312 C-14.27449062 40.50127644 -14.29105898 35.18814391 -14.3125 29.875 C-16.69441213 29.20255884 -16.69441213 29.20255884 -19.3125 28.875 C-21.35448758 30.48709546 -22.69685956 31.87975349 -24.3125 33.875 C-24.81394531 34.46152344 -25.31539062 35.04804688 -25.83203125 35.65234375 C-30.70364881 41.59640172 -34.64875292 48.07340047 -38.6640625 54.60546875 C-40.75888045 58.00627718 -42.9227314 61.35355837 -45.12158203 64.68774414 C-57.72724135 83.84413663 -69.00378168 103.80167776 -79.78759766 124.02685547 C-82.24541379 128.61745474 -84.7493028 133.18266551 -87.25 137.75 C-93.37275155 148.9583819 -99.43097229 160.20117258 -105.47412109 171.45263672 C-107.03371571 174.35600954 -108.59459232 177.25868871 -110.15591431 180.16113281 C-111.75113399 183.12752647 -113.34442699 186.09495311 -114.9375 189.0625 C-115.25154785 189.6470697 -115.5655957 190.2316394 -115.88916016 190.83392334 C-119.69697672 197.92546619 -123.44365916 205.04390795 -127.12158203 212.20361328 C-148.48607683 253.71831688 -148.48607683 253.71831688 -164.4375 261.375 C-171.71952441 262.64143903 -177.03888547 261.73304397 -183.3125 257.875 C-196.46811357 246.90228691 -196.74040815 225.17664139 -198.19287109 209.40039062 C-198.43531102 206.77371618 -198.69122114 204.14862458 -198.94921875 201.5234375 C-199.11538735 199.78393078 -199.28077584 198.04434934 -199.4453125 196.3046875 C-199.51823517 195.55500702 -199.59115784 194.80532654 -199.66629028 194.03292847 C-201.08908929 178.37032182 -201.46008608 162.65650367 -201.57286072 146.93813515 C-201.59436067 143.96637309 -201.62131522 140.99470044 -201.64953613 138.022995 C-201.71840315 130.66938958 -201.77914362 123.3157233 -201.83856201 115.96203613 C-201.88941059 109.68786647 -201.94408384 103.41375569 -202.00437927 97.13966942 C-202.03094256 94.20969239 -202.05173428 91.27970944 -202.0723877 88.34968567 C-202.08897159 86.57467366 -202.1058417 84.7996643 -202.12304688 83.0246582 C-202.12723129 82.20875717 -202.13141571 81.39285614 -202.13572693 80.55223083 C-201.83613455 76.91358686 -201.83613455 76.91358686 -203.3125 73.875 C-208.87673688 83.56089383 -214.24362308 93.29694856 -219.09716797 103.36132812 C-219.95931817 105.14451384 -220.82890078 106.92411467 -221.70361328 108.70117188 C-256.86899775 180.36576125 -282.7101664 258.79745554 -304.47979736 335.47793579 C-304.89866115 336.95295367 -305.32110301 338.42696191 -305.7477417 339.89974976 C-310.24216758 355.49846997 -311.68664157 370.50927579 -311.14648438 386.734375 C-310.97196823 395.97771293 -310.97196823 395.97771293 -314.3125 399.875 C-318.21197042 403.80423737 -321.50699019 406.03114658 -327.0625 406.25 C-330.6830127 406.21337632 -332.94325339 405.95306849 -335.8125 403.6875 C-340.42480633 398.49865538 -340.69998589 393.86343913 -340.57543945 387.14260864 C-340.13579805 381.67908454 -338.70211499 376.61280592 -337.15625 371.37109375 C-336.82266479 370.19525726 -336.48907959 369.01942078 -336.14538574 367.80795288 C-335.23953258 364.63161739 -334.31924974 361.45997242 -333.39044189 358.29028702 C-332.80714432 356.29417222 -332.2295276 354.2965002 -331.65380859 352.29818726 C-319.46476596 309.99124089 -306.02681986 268.15970119 -291.30273438 226.66607666 C-290.3484808 223.97641556 -289.39660134 221.28592572 -288.4453125 218.59521484 C-239.49429594 80.26618829 -239.49429594 80.26618829 -216.3125 51.875 C-215.85230469 51.26527344 -215.39210938 50.65554688 -214.91796875 50.02734375 C-211.50181194 45.61345225 -207.61369193 42.64206398 -202.3125 40.875 C-197.52208756 40.48939405 -192.95176842 40.23354714 -188.4375 42 C-179.11105564 50.22921561 -176.94298466 60.93920195 -175.125 72.875 C-174.96064453 73.87789063 -174.79628906 74.88078125 -174.62695312 75.9140625 C-173.01913689 85.99057882 -172.20547191 96.08289755 -171.77734375 106.2734375 C-171.73560532 107.25234955 -171.69386688 108.2312616 -171.65086365 109.23983765 C-171.19404951 120.727811 -171.06836529 132.22011213 -170.92407227 143.71539307 C-170.63294421 166.16810145 -170.03342906 188.54707457 -168.56640625 210.95410156 C-168.27693614 215.42418814 -168.01104315 219.89536688 -167.75 224.3671875 C-167.70617187 225.11694855 -167.66234375 225.86670959 -167.6171875 226.63919067 C-167.51534533 228.38444415 -167.41387887 230.12971955 -167.3125 231.875 C-164.72016527 229.40550522 -162.63655403 227.07435373 -160.82421875 223.98828125 C-160.14782349 222.84818604 -160.14782349 222.84818604 -159.45776367 221.68505859 C-158.97670166 220.86086426 -158.49563965 220.03666992 -158 219.1875 C-156.92744447 217.37348434 -155.85451035 215.55969249 -154.78125 213.74609375 C-154.21664062 212.78815918 -153.65203125 211.83022461 -153.0703125 210.84326172 C-151.30142588 207.85630012 -149.51366852 204.88153942 -147.71875 201.91015625 C-132.36915037 176.49880875 -117.6532066 150.72865548 -103.37109375 124.703125 C-95.52797652 110.41390276 -87.56460353 96.21458991 -79.26708984 82.18212891 C-77.86878068 79.81621635 -76.47309843 77.44889606 -75.08056641 75.07958984 C-25.79546847 -8.76072514 -25.79546847 -8.76072514 0 0 Z M-36.6875 20.75 C-50.09805718 37.76930086 -60.32440888 57.54383992 -71.30999756 76.17596436 C-72.64778654 78.4432418 -73.98973965 80.70804224 -75.33203125 82.97265625 C-84.54795194 98.54154249 -93.462108 114.27663204 -102.1875 130.125 C-102.87377048 131.3710986 -103.56004979 132.61719235 -104.24633789 133.86328125 C-104.58575912 134.47961426 -104.92518036 135.09594727 -105.27488708 135.73095703 C-115.18197242 153.71999482 -125.22420115 171.58064389 -135.859375 189.15234375 C-138.3266618 193.22899271 -140.75822215 197.32320647 -143.15283203 201.44287109 C-147.71196176 209.28457423 -152.42318825 217.03142632 -157.1875 224.75 C-157.83074219 225.80388916 -158.47398437 226.85777832 -159.13671875 227.94360352 C-160.05517578 229.42171509 -160.05517578 229.42171509 -160.9921875 230.9296875 C-161.80792236 232.25202393 -161.80792236 232.25202393 -162.64013672 233.60107422 C-164.32616055 235.89357436 -165.95437467 237.30826949 -168.3125 238.875 C-169.95884631 232.1718651 -170.83709314 225.68177846 -171.34765625 218.8046875 C-171.4726223 217.18141289 -171.4726223 217.18141289 -171.60011292 215.52534485 C-171.86953832 211.93427752 -172.12411888 208.34240856 -172.375 204.75 C-172.46376404 203.50666901 -172.55252808 202.26333801 -172.64398193 200.98233032 C-174.36149606 176.41589012 -174.8557893 151.87173265 -174.97394848 127.25030422 C-175.06954964 107.34736256 -175.53122918 87.68851571 -179.1875 68.0625 C-179.33574219 67.17498047 -179.48398437 66.28746094 -179.63671875 65.37304688 C-181.07964456 57.43695494 -183.64267188 49.87737109 -190.3125 44.875 C-195.91847917 43.51871472 -199.89388438 43.60903347 -205.3125 45.875 C-216.8650705 53.50405599 -223.39073214 68.27541129 -229.1640625 80.46777344 C-230.46274884 83.18993486 -231.79293482 85.89558249 -233.125 88.6015625 C-240.08591893 102.81217455 -246.42136388 117.19112341 -252.3125 131.875 C-252.72790039 132.90270508 -253.14330078 133.93041016 -253.57128906 134.98925781 C-278.5186279 196.85332993 -302.4286546 260.79123184 -319.88037109 325.20629883 C-321.51058351 331.19363359 -323.35634991 337.06341594 -325.34863281 342.93969727 C-326.83880164 347.47776713 -328.08524614 352.07255766 -329.3125 356.6875 C-329.82525731 358.61074736 -330.33827888 360.53392429 -330.8515625 362.45703125 C-331.0980957 363.38209473 -331.34462891 364.3071582 -331.59863281 365.26025391 C-332.22768785 367.56435083 -332.89296228 369.85122259 -333.5859375 372.13671875 C-336.06999212 380.56664878 -338.639716 390.55671732 -335.4765625 399.14453125 C-334.26630688 401.18080025 -334.26630688 401.18080025 -331.3125 402.875 C-326.34228503 403.44848634 -323.15598487 402.66793332 -318.890625 400.3359375 C-315.71467911 397.39582918 -314.42787132 394.44599604 -314.10986328 390.11572266 C-314.08854464 386.73957838 -314.15723583 383.37490407 -314.25 380 C-314.45564731 361.61464399 -311.63417868 346.32446941 -306.21191406 328.79248047 C-305.16174604 325.38599083 -304.14885393 321.96935917 -303.13891602 318.55078125 C-302.1510198 315.22226215 -301.14137672 311.90047284 -300.13134766 308.57861328 C-299.57753388 306.75007012 -299.02783966 304.92027501 -298.48193359 303.08935547 C-286.16420549 261.81295738 -271.95761489 221.00389121 -256.3125 180.875 C-256.01257141 180.10474487 -255.71264282 179.33448975 -255.40362549 178.54089355 C-247.83010569 159.1152119 -239.95109348 139.85520754 -231.3125 120.875 C-230.76014988 119.65230147 -230.20807786 118.42947729 -229.65625 117.20654297 C-211.52308036 77.08558036 -211.52308036 77.08558036 -204.3125 69.875 C-202.25 70.125 -202.25 70.125 -200.3125 70.875 C-198.81827402 73.86345197 -199.15083938 76.93151807 -199.13891602 80.20996094 C-199.132229 80.96851379 -199.12554199 81.72706665 -199.11865234 82.50860596 C-199.10456375 84.16619997 -199.09268196 85.82381383 -199.08270454 87.48143768 C-199.06617357 90.14689246 -199.04290504 92.812213 -199.01780701 95.4776001 C-198.94755378 103.06149394 -198.88852178 110.64545802 -198.83569336 118.22949219 C-198.69373845 138.07154658 -198.42752314 157.88432416 -197.40234375 177.703125 C-197.36400484 178.47313591 -197.32566593 179.24314682 -197.28616524 180.03649139 C-196.83254295 188.94047744 -196.05485357 197.70492027 -194.74830627 206.52606201 C-194.30406157 209.93984483 -194.08861919 213.31183086 -193.9375 216.75 C-193.04384797 230.56241116 -190.08783562 247.16334142 -179.25 256.6875 C-173.90338947 258.84889575 -168.45005837 258.98051553 -162.984375 257.0546875 C-145.62018783 247.12337182 -135.271777 219.98948906 -126.62133789 203.15258789 C-122.98220551 196.07128521 -119.2737235 189.03893711 -115.4375 182.0625 C-111.01358871 174.01678233 -106.66234821 165.93472683 -102.35122681 157.82818604 C-95.93131778 145.75641069 -89.47259888 133.7078704 -82.88134766 121.72851562 C-81.77457275 119.71544605 -80.67031738 117.70099025 -79.56787109 115.68554688 C-33.61411185 31.71582895 -33.61411185 31.71582895 -20.3125 24.875 C-14.28288037 24.9807828 -14.28288037 24.9807828 -11.62036133 27.43432617 C-9.78300686 30.86311703 -9.90332896 34.0699965 -9.94921875 37.86328125 C-9.94772324 38.65980103 -9.94622772 39.4563208 -9.94468689 40.27697754 C-9.9458449 42.91419833 -9.97127833 45.55044344 -10 48.1875 C-10.00626404 49.1080014 -10.01252808 50.02850281 -10.01898193 50.97689819 C-10.22986324 81.50574414 -12.35494392 111.7968377 -14.99358368 142.19927597 C-15.18361353 144.39264152 -15.37184852 146.58615556 -15.55987549 148.7796936 C-17.17496669 167.5330874 -19.27641759 186.14850198 -21.88818359 204.79101562 C-22.43012314 208.72989962 -22.91124629 212.6731882 -23.3828125 216.62109375 C-24.42754869 225.09671611 -25.79794779 233.51296541 -27.1875 241.9375 C-27.45782439 243.58649721 -27.72808728 245.2355045 -27.99829102 246.88452148 C-28.65114815 250.86040012 -29.3088293 254.83545829 -29.96942139 258.81005859 C-30.26980161 260.61800448 -30.56884916 262.42617168 -30.86767578 264.234375 C-39.22470095 314.56356014 -50.51659783 364.38630884 -63.9296875 413.6015625 C-64.12226639 414.31011383 -64.31484528 415.01866516 -64.51325989 415.74868774 C-65.36873173 418.88698167 -66.23764882 422.02051765 -67.12866211 425.14892578 C-69.94704256 434.96721444 -69.94704256 434.96721444 -68.0625 444.75 C-65.40583411 447.97595144 -63.53474846 448.68900567 -59.4375 449.3125 C-55.23525697 448.72418598 -52.97503436 447.03221288 -50.3125 443.875 C-46.18231815 437.82259516 -44.08204205 430.63359626 -41.75 423.75 C-41.46906494 422.92242188 -41.18812988 422.09484375 -40.89868164 421.2421875 C-35.04407906 403.38403327 -31.79079907 384.84528111 -28.1875 366.4375 C-27.9012975 364.97877782 -27.61508321 363.52005795 -27.32885742 362.06134033 C-19.37540096 321.47998412 -11.62502373 280.88053897 -7.01124573 239.76286316 C-6.53930046 235.61884898 -5.96952962 231.50456305 -5.30859375 227.38671875 C-4.04201579 219.4350805 -3.21733527 211.44289217 -2.375 203.4375 C-2.20074639 201.79524073 -2.02642895 200.15298823 -1.85205078 198.51074219 C-1.50117266 195.19831168 -1.15281259 191.88562834 -0.80615234 188.57275391 C-0.49864658 185.63701037 -0.18727967 182.70175282 0.13037109 179.76708984 C2.0909097 161.62572729 3.47544143 143.49210788 4.44921875 125.27539062 C4.64960912 121.53602284 4.8649985 117.7976675 5.08360291 114.05932617 C6.18038691 95.19122354 6.91235549 76.3335947 7.3125 57.4375 C7.3330545 56.47172028 7.35360901 55.50594055 7.37478638 54.51089478 C7.56568363 45.2802478 7.71956199 36.04907387 7.7578125 26.81640625 C7.76578857 24.9612439 7.76578857 24.9612439 7.77392578 23.06860352 C7.59026802 16.2820861 5.96482357 11.28455627 1.6875 5.875 C-1.50976258 3.0652844 -4.11714209 2.02137036 -8.375 1.5 C-20.39905859 2.64514844 -29.18174074 12.04061448 -36.6875 20.75 Z " fill="#FAF6F5" transform="translate(643.3125,295.125)"/>
<path d="M0 0 C3.645477 2.75270712 6.69667062 5.90483211 7.37109375 10.56323242 C7.57915 20.29062703 5.15594091 28.25876214 2 37.3125 C1.51643977 38.74614248 1.03465731 40.18038587 0.5546875 41.61523438 C-0.60985549 45.08397098 -1.79803323 48.54402587 -3 52 C-2.50588623 51.36731201 -2.01177246 50.73462402 -1.50268555 50.08276367 C20.69190283 21.95624869 20.69190283 21.95624869 37 19 C46.48447168 18.08889327 53.41551016 19.94486163 60.875 25.875 C64.40702195 29.16881582 66.84065883 32.19161185 67.125 37.203125 C66.89513057 41.54191042 66.36296787 43.55327032 63.5625 47 C60.11251058 49.69267467 57.79352592 50.5 53.3515625 50.5 C49.36247134 49.65182115 46.58520942 47.08679598 43.4921875 44.53125 C40.36345727 42.60889538 38.61951778 42.55640851 35 43 C9.87051973 52.82806382 -1.86737757 90.05406664 -12.5 112.625 C-22.48228492 133.74114246 -22.48228492 133.74114246 -31 138 C-35.89633308 138.53718762 -39.8677559 138.52418708 -44.375 136.4375 C-49.52596514 131.65446094 -51.72068439 126.37161407 -52.16796875 119.37109375 C-52.23590189 109.1675364 -51.13117858 99.13010816 -50 89 C-50.85980469 89.50789062 -51.71960938 90.01578125 -52.60546875 90.5390625 C-70.35507802 100.92148264 -88.86544662 110.21235689 -109.9765625 105.30859375 C-112.20402742 104.39387878 -114.03083283 103.37928449 -116 102 C-116.60585938 101.61070312 -117.21171875 101.22140625 -117.8359375 100.8203125 C-123.63408292 96.54133182 -126.67410095 90.24743347 -130 84 C-130.59425781 84.79921875 -131.18851563 85.5984375 -131.80078125 86.421875 C-136.22713009 92.31373473 -140.765332 98.07481366 -145.6875 103.5625 C-146.96173828 104.98755859 -146.96173828 104.98755859 -148.26171875 106.44140625 C-154.49688545 112.26741793 -160.6904223 114.37785495 -169.14453125 114.27734375 C-174.94221262 113.71423106 -179.12906605 111.28844591 -182.9375 106.9375 C-187.41494549 100.56053218 -186.87541996 92.50026472 -186 85 C-180.91533739 61.36350057 -162.17327568 31.75243624 -142 18 C-135.81410477 14.29545257 -130.17323164 13.1064922 -123 14 C-121.31624835 14.62225605 -119.64232772 15.27544365 -118 16 C-115.20021183 15.72905276 -113.72468517 14.8271279 -111.3125 13.3125 C-107.31848282 11.72996489 -105.12980121 11.95219241 -101.05859375 13.078125 C-97.61182212 14.62165081 -96.47439701 16.60247646 -95 20 C-94.20621842 26.75150486 -96.67798946 31.86089308 -99.25 37.9375 C-105.03983347 52.24412308 -109.98524426 66.31478186 -108 82 C-106.68758285 84.90979338 -105.71513963 86.50961854 -103.0859375 88.3125 C-95.0369026 90.96536543 -86.11350845 86.57175855 -79.00390625 83.04980469 C-68.55852906 77.57768944 -58.67900179 71.04621143 -49.23828125 63.99707031 C-45.19651786 61 -45.19651786 61 -43 61 C-42.89558594 60.04609375 -42.79117188 59.0921875 -42.68359375 58.109375 C-39.91042303 38.94229557 -29.81377291 15.50113147 -15.1875 2.5 C-10.40632779 -0.77851809 -5.67695543 -0.74653605 0 0 Z M-16.60546875 8.7109375 C-28.14504203 22.49505021 -37.0294768 41.45444593 -39.625 59.2578125 C-41.69127192 64.88135938 -45.58377031 66.83229739 -50.5625 69.875 C-51.50544922 70.4743335 -52.44839844 71.07366699 -53.41992188 71.69116211 C-56.26464463 73.48685738 -59.12945006 75.24597133 -62 77 C-63.57175114 77.98285457 -65.14337625 78.96591074 -66.71484375 79.94921875 C-78.10632843 86.96996793 -90.09406896 94.29265735 -104 92 C-108.49294791 89.61598682 -110.02087236 86.58872531 -112 82 C-114.41024576 65.55007269 -107.84636333 49.09123843 -101.59179688 34.20458984 C-99.41645362 28.86539562 -98.40926726 24.77890724 -99 19 C-100.96276905 16.72191394 -100.96276905 16.72191394 -104 16 C-108.6054095 16 -110.43901415 16.51062937 -113.9375 19.5625 C-114.618125 20.366875 -115.29875 21.17125 -116 22 C-116.804375 21.360625 -117.60875 20.72125 -118.4375 20.0625 C-122.44302302 17.4391645 -126.23955714 16.69950693 -131 17 C-138.8838749 18.85340217 -144.43124954 24.43124954 -150 30 C-150.67933594 30.67933594 -151.35867188 31.35867188 -152.05859375 32.05859375 C-166.00841472 46.90659233 -182.77784987 72.05493748 -183.5625 92.8125 C-183.30249643 98.19457382 -182.74401967 102.9147024 -179 107 C-173.65597706 110.68517102 -168.36491452 111.80824311 -162 111 C-150.72412067 107.60825144 -143.7447343 96.5902627 -137 87.6875 C-136.32831787 86.80320312 -135.65663574 85.91890625 -134.96459961 85.0078125 C-134.33690674 84.16347656 -133.70921387 83.31914063 -133.0625 82.44921875 C-132.49660156 81.68955811 -131.93070313 80.92989746 -131.34765625 80.1472168 C-130.03370807 78.05370697 -129.43300339 76.41611778 -129 74 C-128.34 74 -127.68 74 -127 74 C-126.9175 75.134375 -126.835 76.26875 -126.75 77.4375 C-125.70618992 85.53060278 -121.99422444 92.47900381 -116 98 C-111.6371991 101.30728455 -107.45249087 102.6303396 -102 103 C-101.29488281 103.06316406 -100.58976563 103.12632812 -99.86328125 103.19140625 C-80.29211852 104.19422616 -60.7731283 92.39270752 -45 82 C-45.2165625 83.093125 -45.433125 84.18625 -45.65625 85.3125 C-47.40644612 94.76335169 -48.36323034 104.07199844 -48.5 113.6875 C-48.53029297 114.68974609 -48.56058594 115.69199219 -48.59179688 116.72460938 C-48.59622464 123.32640519 -47.44375931 127.97699888 -43 133 C-39.24543433 135.50304378 -37.45254066 135.45280074 -33 135 C-24.59530044 130.96574421 -20.99560836 121.35275027 -16.875 113.4375 C-16.40344482 112.53563965 -15.93188965 111.6337793 -15.44604492 110.70458984 C-11.92345436 103.91156433 -8.58771733 97.04011102 -5.3125 90.125 C12.33583002 52.98411573 12.33583002 52.98411573 29.9375 41 C34.43900122 39.53012205 38.33168305 38.99081972 43 40 C45.75276747 41.66380504 48.14142075 43.46904168 50.578125 45.56640625 C52.98406025 47.29505375 52.98406025 47.29505375 56.1484375 46.81640625 C59.61140144 45.82495493 60.96280109 44.97744457 63 42 C63.61374159 37.85724429 63.31356297 35.62712593 61.4375 31.875 C57.21673696 26.89666411 52.66771655 23.38124948 46.03125 22.69140625 C36.99301989 22.36147086 31.35595239 23.76595695 24 29 C22.66195312 29.94552734 22.66195312 29.94552734 21.296875 30.91015625 C9.64385266 39.81639475 1.02166131 51.55130092 -7.16772461 63.578125 C-7.64089111 64.27035156 -8.11405762 64.96257812 -8.6015625 65.67578125 C-9.01744629 66.29364502 -9.43333008 66.91150879 -9.86181641 67.5480957 C-11 69 -11 69 -13 70 C-12.66266846 68.998479 -12.32533691 67.99695801 -11.9777832 66.96508789 C-10.69784375 63.16213748 -9.42220585 59.3577547 -8.14770508 55.55297852 C-7.60098172 53.92271691 -7.05317227 52.29281905 -6.50415039 50.66333008 C-3.59398331 42.02352148 -0.74052783 33.36884487 1.89453125 24.640625 C2.10865158 23.94804092 2.32277191 23.25545685 2.54338074 22.54188538 C4.42603053 16.18528354 4.4809198 11.7022995 2 5.5 C-4.67717125 0.49212156 -11.3770688 3.13906602 -16.60546875 8.7109375 Z " fill="#FBF7F5" transform="translate(862,473)"/>
<path d="M0 0 C0.99 0.33 1.98 0.66 3 1 C3.79801029 10.57612345 -1.75502228 17.50498235 -7 25.125 C-7.5667041 25.94959717 -8.1334082 26.77419434 -8.71728516 27.6237793 C-12.38546387 32.87966956 -16.21315377 37.93784399 -20.375 42.8125 C-21.06916016 43.62775146 -21.06916016 43.62775146 -21.77734375 44.45947266 C-25.20490301 48.35941989 -28.99087615 51.70799698 -33 55 C-32.46463557 49.20491484 -30.16093251 44.67023416 -27.5625 39.5625 C-27.11656494 38.68086182 -26.67062988 37.79922363 -26.21118164 36.89086914 C-19.34179092 23.57773189 -10.83292897 10.4593797 0 0 Z M-2 7 C-11.90548348 19.39267872 -11.90548348 19.39267872 -20 33 C-19.67 33.66 -19.34 34.32 -19 35 C-14.05109828 28.61205593 -9.2993748 22.13816196 -4.875 15.375 C-4.47289307 14.77155762 -4.07078613 14.16811523 -3.65649414 13.54638672 C-2.70599344 12.07082547 -1.84374785 10.53909784 -1 9 C-1.33 8.34 -1.66 7.68 -2 7 Z M-21 35 C-20 37 -20 37 -20 37 Z " fill="#FBF7F5" transform="translate(1508,510)"/>
<path d="M0 0 C0.99 0.33 1.98 0.66 3 1 C3.79801029 10.57612345 -1.75502228 17.50498235 -7 25.125 C-7.5667041 25.94959717 -8.1334082 26.77419434 -8.71728516 27.6237793 C-12.38546387 32.87966956 -16.21315377 37.93784399 -20.375 42.8125 C-21.06916016 43.62775146 -21.06916016 43.62775146 -21.77734375 44.45947266 C-25.20490301 48.35941989 -28.99087615 51.70799698 -33 55 C-32.46463557 49.20491484 -30.16093251 44.67023416 -27.5625 39.5625 C-27.11656494 38.68086182 -26.67062988 37.79922363 -26.21118164 36.89086914 C-19.34179092 23.57773189 -10.83292897 10.4593797 0 0 Z M-2 7 C-11.90548348 19.39267872 -11.90548348 19.39267872 -20 33 C-19.67 33.66 -19.34 34.32 -19 35 C-14.05109828 28.61205593 -9.2993748 22.13816196 -4.875 15.375 C-4.47289307 14.77155762 -4.07078613 14.16811523 -3.65649414 13.54638672 C-2.70599344 12.07082547 -1.84374785 10.53909784 -1 9 C-1.33 8.34 -1.66 7.68 -2 7 Z M-21 35 C-20 37 -20 37 -20 37 Z " fill="#FBF7F5" transform="translate(1256,510)"/>
<path d="M0 0 C0.99 0.33 1.98 0.66 3 1 C3.79801029 10.57612345 -1.75502228 17.50498235 -7 25.125 C-7.5667041 25.94959717 -8.1334082 26.77419434 -8.71728516 27.6237793 C-12.38546387 32.87966956 -16.21315377 37.93784399 -20.375 42.8125 C-21.06916016 43.62775146 -21.06916016 43.62775146 -21.77734375 44.45947266 C-25.20490301 48.35941989 -28.99087615 51.70799698 -33 55 C-32.46463557 49.20491484 -30.16093251 44.67023416 -27.5625 39.5625 C-27.11656494 38.68086182 -26.67062988 37.79922363 -26.21118164 36.89086914 C-19.34179092 23.57773189 -10.83292897 10.4593797 0 0 Z M-2 7 C-11.90548348 19.39267872 -11.90548348 19.39267872 -20 33 C-19.67 33.66 -19.34 34.32 -19 35 C-14.05109828 28.61205593 -9.2993748 22.13816196 -4.875 15.375 C-4.47289307 14.77155762 -4.07078613 14.16811523 -3.65649414 13.54638672 C-2.70599344 12.07082547 -1.84374785 10.53909784 -1 9 C-1.33 8.34 -1.66 7.68 -2 7 Z M-21 35 C-20 37 -20 37 -20 37 Z " fill="#FBF7F5" transform="translate(981,510)"/>
<path d="M0 0 C0.99 0.33 1.98 0.66 3 1 C3.79801029 10.57612345 -1.75502228 17.50498235 -7 25.125 C-7.5667041 25.94959717 -8.1334082 26.77419434 -8.71728516 27.6237793 C-12.38546387 32.87966956 -16.21315377 37.93784399 -20.375 42.8125 C-21.06916016 43.62775146 -21.06916016 43.62775146 -21.77734375 44.45947266 C-25.20490301 48.35941989 -28.99087615 51.70799698 -33 55 C-32.46463557 49.20491484 -30.16093251 44.67023416 -27.5625 39.5625 C-27.11656494 38.68086182 -26.67062988 37.79922363 -26.21118164 36.89086914 C-19.34179092 23.57773189 -10.83292897 10.4593797 0 0 Z M-2 7 C-11.90548348 19.39267872 -11.90548348 19.39267872 -20 33 C-19.67 33.66 -19.34 34.32 -19 35 C-14.05109828 28.61205593 -9.2993748 22.13816196 -4.875 15.375 C-4.47289307 14.77155762 -4.07078613 14.16811523 -3.65649414 13.54638672 C-2.70599344 12.07082547 -1.84374785 10.53909784 -1 9 C-1.33 8.34 -1.66 7.68 -2 7 Z M-21 35 C-20 37 -20 37 -20 37 Z " fill="#FBF7F5" transform="translate(731,510)"/>
</svg>
